<?xml version="1.0" encoding="UTF-8"?>
<svg id="Layer_2" data-name="Layer 2" xmlns="http://www.w3.org/2000/svg" viewBox="0 0 391.67 392.91">
  <defs>
    <style>
      .cls-1 {
        fill: #61b41c;
      }

      .cls-1, .cls-2, .cls-3, .cls-4, .cls-5, .cls-6, .cls-7, .cls-8, .cls-9, .cls-10, .cls-11, .cls-12, .cls-13, .cls-14, .cls-15, .cls-16, .cls-17, .cls-18, .cls-19, .cls-20, .cls-21, .cls-22, .cls-23, .cls-24, .cls-25, .cls-26, .cls-27, .cls-28, .cls-29, .cls-30, .cls-31, .cls-32, .cls-33, .cls-34, .cls-35, .cls-36 {
        stroke-width: 0px;
      }

      .cls-2 {
        fill: #61b31b;
      }

      .cls-3 {
        fill: #5fb21a;
      }

      .cls-4 {
        fill: #5eb119;
      }

      .cls-5 {
        fill: #5db018;
      }

      .cls-6 {
        fill: #60b31b;
      }

      .cls-7 {
        fill: #73c82f;
      }

      .cls-8 {
        fill: #73c72e;
      }

      .cls-9 {
        fill: #4e9f07;
      }

      .cls-10 {
        fill: #7ab82d;
      }

      .cls-11 {
        fill: #5d381b;
      }

      .cls-12 {
        fill: #63b61e;
      }

      .cls-13 {
        fill: #5bad16;
      }

      .cls-14 {
        fill: #57a912;
      }

      .cls-15 {
        fill: #59ab14;
      }

      .cls-16 {
        fill: #5aac15;
      }

      .cls-17 {
        fill: #62b51d;
      }

      .cls-18 {
        fill: #7fc233;
      }

      .cls-19 {
        fill: #6bbf26;
      }

      .cls-20 {
        fill: #88c83b;
      }

      .cls-21 {
        fill: #868686;
      }

      .cls-22 {
        fill: #93d447;
      }

      .cls-23 {
        fill: #58aa13;
      }

      .cls-24 {
        fill: #56a811;
      }

      .cls-25 {
        fill: #c17e43;
      }

      .cls-26 {
        fill: #9d6635;
      }

      .cls-27 {
        fill: #65b820;
      }

      .cls-28 {
        fill: #8bcb3e;
      }

      .cls-29 {
        fill: #6abe25;
      }

      .cls-30 {
        fill: #7cba2f;
      }

      .cls-31 {
        fill: #6b6b6b;
      }

      .cls-32 {
        fill: #7f5028;
      }

      .cls-33 {
        fill: #69bd25;
      }

      .cls-34 {
        fill: #67ba22;
      }

      .cls-35 {
        fill: #66b921;
      }

      .cls-36 {
        fill: #68bc24;
      }
    </style>
  </defs>
  <g id="Layer_3" data-name="Layer 3">
    <g>
      <rect class="cls-26" x="345.43" y="346.67" width="22.35" height="22.35"/>
      <rect class="cls-26" x="345.43" y="323.08" width="22.35" height="23.59"/>
      <rect class="cls-25" x="345.43" y="300.74" width="22.35" height="22.35"/>
      <rect class="cls-11" x="345.43" y="277.15" width="22.35" height="23.59"/>
      <rect class="cls-32" x="345.43" y="254.8" width="22.35" height="22.35"/>
      <rect class="cls-26" x="345.43" y="231.22" width="22.35" height="23.59"/>
      <rect class="cls-32" x="345.43" y="207.63" width="22.35" height="23.59"/>
      <rect class="cls-26" x="345.43" y="185.28" width="22.35" height="22.35"/>
      <rect class="cls-26" x="345.43" y="161.69" width="22.35" height="23.59"/>
      <rect class="cls-25" x="345.43" y="139.35" width="22.35" height="22.35"/>
      <rect class="cls-32" x="345.43" y="115.76" width="22.35" height="23.59"/>
      <rect class="cls-32" x="345.43" y="93.42" width="22.35" height="22.35"/>
      <rect class="cls-11" x="345.43" y="69.83" width="22.35" height="23.59"/>
      <rect class="cls-1" x="345.43" y="47.48" width="22.35" height="22.35"/>
      <rect class="cls-5" x="345.43" y="23.9" width="22.35" height="23.59"/>
      <rect class="cls-26" x="321.85" y="346.67" width="23.59" height="22.35"/>
      <rect class="cls-26" x="321.85" y="323.08" width="23.59" height="23.59"/>
      <rect class="cls-25" x="321.85" y="300.74" width="23.59" height="22.35"/>
      <rect class="cls-32" x="321.85" y="277.15" width="23.59" height="23.59"/>
      <rect class="cls-21" x="321.85" y="254.8" width="23.59" height="22.35"/>
      <rect class="cls-32" x="321.85" y="231.22" width="23.59" height="23.59"/>
      <rect class="cls-11" x="321.85" y="207.63" width="23.59" height="23.59"/>
      <rect class="cls-26" x="321.85" y="185.28" width="23.59" height="22.35"/>
      <rect class="cls-32" x="321.85" y="161.69" width="23.59" height="23.59"/>
      <rect class="cls-32" x="321.85" y="139.35" width="23.59" height="22.35"/>
      <rect class="cls-11" x="321.85" y="115.76" width="23.59" height="23.59"/>
      <rect class="cls-11" x="321.85" y="93.42" width="23.59" height="22.35"/>
      <rect class="cls-14" x="321.85" y="69.83" width="23.59" height="23.59"/>
      <rect class="cls-5" x="321.85" y="47.48" width="23.59" height="22.35"/>
      <rect class="cls-9" x="321.85" y="23.9" width="23.59" height="23.59"/>
      <rect class="cls-32" x="299.5" y="346.67" width="22.35" height="22.35"/>
      <rect class="cls-25" x="299.5" y="323.08" width="22.35" height="23.59"/>
      <rect class="cls-32" x="299.5" y="300.74" width="22.35" height="22.35"/>
      <rect class="cls-26" x="299.5" y="277.15" width="22.35" height="23.59"/>
      <rect class="cls-26" x="299.5" y="254.8" width="22.35" height="22.35"/>
      <rect class="cls-25" x="299.5" y="231.22" width="22.35" height="23.59"/>
      <rect class="cls-32" x="299.5" y="207.63" width="22.35" height="23.59"/>
      <rect class="cls-25" x="299.5" y="185.28" width="22.35" height="22.35"/>
      <rect class="cls-26" x="299.5" y="161.69" width="22.35" height="23.59"/>
      <rect class="cls-32" x="299.5" y="139.35" width="22.35" height="22.35"/>
      <rect class="cls-26" x="299.5" y="115.76" width="22.35" height="23.59"/>
      <rect class="cls-11" x="299.5" y="93.42" width="22.35" height="22.35"/>
      <rect class="cls-32" x="299.5" y="69.83" width="22.35" height="23.59"/>
      <rect class="cls-17" x="299.5" y="47.48" width="22.35" height="22.35"/>
      <rect class="cls-16" x="299.5" y="23.9" width="22.35" height="23.59"/>
      <rect class="cls-32" x="275.91" y="346.67" width="23.59" height="22.35"/>
      <rect class="cls-32" x="275.91" y="323.08" width="23.59" height="23.59"/>
      <rect class="cls-32" x="275.91" y="300.74" width="23.59" height="22.35"/>
      <rect class="cls-11" x="275.91" y="277.15" width="23.59" height="23.59"/>
      <rect class="cls-26" x="275.91" y="254.8" width="23.59" height="22.35"/>
      <rect class="cls-25" x="275.91" y="231.22" width="23.59" height="23.59"/>
      <rect class="cls-26" x="275.91" y="207.63" width="23.59" height="23.59"/>
      <rect class="cls-32" x="275.91" y="185.28" width="23.59" height="22.35"/>
      <rect class="cls-32" x="275.91" y="161.69" width="23.59" height="23.59"/>
      <rect class="cls-25" x="275.91" y="139.35" width="23.59" height="22.35"/>
      <rect class="cls-32" x="275.91" y="115.76" width="23.59" height="23.59"/>
      <rect class="cls-32" x="275.91" y="93.42" width="23.59" height="22.35"/>
      <rect class="cls-11" x="275.91" y="69.83" width="23.59" height="23.59"/>
      <rect class="cls-23" x="275.91" y="47.48" width="23.59" height="22.35"/>
      <rect class="cls-6" x="275.91" y="23.9" width="23.59" height="23.59"/>
      <rect class="cls-11" x="253.57" y="346.67" width="22.35" height="22.35"/>
      <rect class="cls-11" x="253.57" y="323.08" width="22.35" height="23.59"/>
      <rect class="cls-32" x="253.57" y="300.74" width="22.35" height="22.35"/>
      <rect class="cls-32" x="253.57" y="277.15" width="22.35" height="23.59"/>
      <rect class="cls-32" x="253.57" y="254.8" width="22.35" height="22.35"/>
      <rect class="cls-32" x="253.57" y="231.22" width="22.35" height="23.59"/>
      <rect class="cls-32" x="253.57" y="207.63" width="22.35" height="23.59"/>
      <rect class="cls-26" x="253.57" y="185.28" width="22.35" height="22.35"/>
      <rect class="cls-25" x="253.57" y="161.69" width="22.35" height="23.59"/>
      <rect class="cls-11" x="253.57" y="139.35" width="22.35" height="22.35"/>
      <rect class="cls-31" x="253.57" y="115.76" width="22.35" height="23.59"/>
      <rect class="cls-11" x="253.57" y="93.42" width="22.35" height="22.35"/>
      <rect class="cls-28" x="253.57" y="69.83" width="22.35" height="23.59"/>
      <rect class="cls-36" x="253.57" y="47.48" width="22.35" height="22.35"/>
      <rect class="cls-5" x="253.57" y="23.9" width="22.35" height="23.59"/>
      <rect class="cls-32" x="229.98" y="346.67" width="23.59" height="22.35"/>
      <rect class="cls-25" x="229.98" y="323.08" width="23.59" height="23.59"/>
      <rect class="cls-32" x="229.98" y="300.74" width="23.59" height="22.35"/>
      <rect class="cls-26" x="229.98" y="277.15" width="23.59" height="23.59"/>
      <rect class="cls-25" x="229.98" y="254.8" width="23.59" height="22.35"/>
      <rect class="cls-32" x="229.98" y="231.22" width="23.59" height="23.59"/>
      <rect class="cls-26" x="229.98" y="207.63" width="23.59" height="23.59"/>
      <rect class="cls-26" x="229.98" y="185.28" width="23.59" height="22.35"/>
      <rect class="cls-25" x="229.98" y="161.69" width="23.59" height="23.59"/>
      <rect class="cls-32" x="229.98" y="139.35" width="23.59" height="22.35"/>
      <rect class="cls-11" x="229.98" y="115.76" width="23.59" height="23.59"/>
      <rect class="cls-12" x="229.98" y="93.42" width="23.59" height="22.35"/>
      <rect class="cls-20" x="229.98" y="69.83" width="23.59" height="23.59"/>
      <rect class="cls-20" x="229.98" y="47.48" width="23.59" height="22.35"/>
      <rect class="cls-6" x="229.98" y="23.9" width="23.59" height="23.59"/>
      <rect class="cls-32" x="207.63" y="346.67" width="22.35" height="22.35"/>
      <rect class="cls-11" x="207.63" y="323.08" width="22.35" height="23.59"/>
      <rect class="cls-32" x="207.63" y="300.74" width="22.35" height="22.35"/>
      <rect class="cls-26" x="207.63" y="277.15" width="22.35" height="23.59"/>
      <rect class="cls-25" x="207.63" y="254.8" width="22.35" height="22.35"/>
      <rect class="cls-32" x="207.63" y="231.22" width="22.35" height="23.59"/>
      <rect class="cls-26" x="207.63" y="207.63" width="22.35" height="23.59"/>
      <rect class="cls-11" x="207.63" y="185.28" width="22.35" height="22.35"/>
      <rect class="cls-32" x="207.63" y="161.69" width="22.35" height="23.59"/>
      <rect class="cls-32" x="207.63" y="139.35" width="22.35" height="22.35"/>
      <rect class="cls-11" x="207.63" y="115.76" width="22.35" height="23.59"/>
      <rect class="cls-11" x="207.63" y="93.42" width="22.35" height="22.35"/>
      <rect class="cls-7" x="207.63" y="69.83" width="22.35" height="23.59"/>
      <rect class="cls-28" x="207.63" y="47.48" width="22.35" height="22.35"/>
      <rect class="cls-19" x="207.63" y="23.9" width="22.35" height="23.59"/>
      <rect class="cls-32" x="184.05" y="346.67" width="23.59" height="22.35"/>
      <rect class="cls-32" x="184.05" y="323.08" width="23.59" height="23.59"/>
      <rect class="cls-32" x="184.05" y="300.74" width="23.59" height="22.35"/>
      <rect class="cls-31" x="184.05" y="277.15" width="23.59" height="23.59"/>
      <rect class="cls-11" x="184.05" y="254.8" width="23.59" height="22.35"/>
      <rect class="cls-32" x="184.05" y="231.22" width="23.59" height="23.59"/>
      <rect class="cls-32" x="184.05" y="207.63" width="23.59" height="23.59"/>
      <rect class="cls-26" x="184.05" y="185.28" width="23.59" height="22.35"/>
      <rect class="cls-25" x="184.05" y="161.69" width="23.59" height="23.59"/>
      <rect class="cls-11" x="184.05" y="139.35" width="23.59" height="22.35"/>
      <rect class="cls-11" x="184.05" y="115.76" width="23.59" height="23.59"/>
      <rect class="cls-24" x="184.05" y="93.42" width="23.59" height="22.35"/>
      <rect class="cls-33" x="184.05" y="69.83" width="23.59" height="23.59"/>
      <rect class="cls-24" x="184.05" y="47.48" width="23.59" height="22.35"/>
      <rect class="cls-8" x="184.05" y="23.9" width="23.59" height="23.59"/>
      <rect class="cls-11" x="161.7" y="346.67" width="22.35" height="22.35"/>
      <rect class="cls-26" x="161.7" y="323.08" width="22.35" height="23.59"/>
      <rect class="cls-32" x="161.7" y="300.74" width="22.35" height="22.35"/>
      <rect class="cls-26" x="161.7" y="277.15" width="22.35" height="23.59"/>
      <rect class="cls-26" x="161.7" y="254.8" width="22.35" height="22.35"/>
      <rect class="cls-32" x="161.7" y="231.22" width="22.35" height="23.59"/>
      <rect class="cls-11" x="161.7" y="207.63" width="22.35" height="23.59"/>
      <rect class="cls-32" x="161.7" y="185.28" width="22.35" height="22.35"/>
      <rect class="cls-25" x="161.7" y="161.69" width="22.35" height="23.59"/>
      <rect class="cls-11" x="161.7" y="139.35" width="22.35" height="22.35"/>
      <rect class="cls-32" x="161.7" y="115.76" width="22.35" height="23.59"/>
      <rect class="cls-11" x="161.7" y="93.42" width="22.35" height="22.35"/>
      <rect class="cls-11" x="161.7" y="69.83" width="22.35" height="23.59"/>
      <rect class="cls-15" x="161.7" y="47.48" width="22.35" height="22.35"/>
      <rect class="cls-17" x="161.7" y="23.9" width="22.35" height="23.59"/>
      <rect class="cls-32" x="138.11" y="346.67" width="23.59" height="22.35"/>
      <rect class="cls-26" x="138.11" y="323.08" width="23.59" height="23.59"/>
      <rect class="cls-25" x="138.11" y="300.74" width="23.59" height="22.35"/>
      <rect class="cls-32" x="138.11" y="277.15" width="23.59" height="23.59"/>
      <rect class="cls-25" x="138.11" y="254.8" width="23.59" height="22.35"/>
      <rect class="cls-11" x="138.11" y="231.22" width="23.59" height="23.59"/>
      <rect class="cls-32" x="138.11" y="207.63" width="23.59" height="23.59"/>
      <rect class="cls-32" x="138.11" y="185.28" width="23.59" height="22.35"/>
      <rect class="cls-32" x="138.11" y="161.69" width="23.59" height="23.59"/>
      <rect class="cls-11" x="138.11" y="139.35" width="23.59" height="22.35"/>
      <rect class="cls-32" x="138.11" y="115.76" width="23.59" height="23.59"/>
      <rect class="cls-11" x="138.11" y="93.42" width="23.59" height="22.35"/>
      <rect class="cls-35" x="138.11" y="69.83" width="23.59" height="23.59"/>
      <rect class="cls-4" x="138.11" y="47.48" width="23.59" height="22.35"/>
      <rect class="cls-24" x="138.11" y="23.9" width="23.59" height="23.59"/>
      <rect class="cls-11" x="114.53" y="346.67" width="23.59" height="22.35"/>
      <rect class="cls-32" x="114.53" y="323.08" width="23.59" height="23.59"/>
      <rect class="cls-26" x="114.53" y="300.74" width="23.59" height="22.35"/>
      <rect class="cls-25" x="114.53" y="277.15" width="23.59" height="23.59"/>
      <rect class="cls-32" x="114.53" y="254.8" width="23.59" height="22.35"/>
      <rect class="cls-11" x="114.53" y="231.22" width="23.59" height="23.59"/>
      <rect class="cls-26" x="114.53" y="207.63" width="23.59" height="23.59"/>
      <rect class="cls-26" x="114.53" y="185.28" width="23.59" height="22.35"/>
      <rect class="cls-32" x="114.53" y="161.69" width="23.59" height="23.59"/>
      <rect class="cls-26" x="114.53" y="139.35" width="23.59" height="22.35"/>
      <rect class="cls-26" x="114.53" y="115.76" width="23.59" height="23.59"/>
      <rect class="cls-11" x="114.53" y="93.42" width="23.59" height="22.35"/>
      <rect class="cls-11" x="114.53" y="69.83" width="23.59" height="23.59"/>
      <rect class="cls-11" x="114.53" y="47.48" width="23.59" height="22.35"/>
      <rect class="cls-27" x="114.53" y="23.9" width="23.59" height="23.59"/>
      <rect class="cls-32" x="92.18" y="346.67" width="22.35" height="22.35"/>
      <rect class="cls-11" x="92.18" y="323.08" width="22.35" height="23.59"/>
      <rect class="cls-26" x="92.18" y="300.74" width="22.35" height="22.35"/>
      <rect class="cls-26" x="92.18" y="277.15" width="22.35" height="23.59"/>
      <rect class="cls-25" x="92.18" y="254.8" width="22.35" height="22.35"/>
      <rect class="cls-32" x="92.18" y="231.22" width="22.35" height="23.59"/>
      <rect class="cls-32" x="92.18" y="207.63" width="22.35" height="23.59"/>
      <rect class="cls-26" x="92.18" y="185.28" width="22.35" height="22.35"/>
      <rect class="cls-21" x="92.18" y="161.69" width="22.35" height="23.59"/>
      <rect class="cls-32" x="92.18" y="139.35" width="22.35" height="22.35"/>
      <rect class="cls-11" x="92.18" y="115.76" width="22.35" height="23.59"/>
      <rect class="cls-34" x="92.18" y="93.42" width="22.35" height="22.35"/>
      <rect class="cls-3" x="92.18" y="69.83" width="22.35" height="23.59"/>
      <rect class="cls-30" x="92.18" y="47.48" width="22.35" height="22.35"/>
      <rect class="cls-2" x="92.18" y="23.9" width="22.35" height="23.59"/>
      <rect class="cls-25" x="68.59" y="346.67" width="23.59" height="22.35"/>
      <rect class="cls-32" x="68.59" y="323.08" width="23.59" height="23.59"/>
      <rect class="cls-32" x="68.59" y="300.74" width="23.59" height="22.35"/>
      <rect class="cls-26" x="68.59" y="277.15" width="23.59" height="23.59"/>
      <rect class="cls-25" x="68.59" y="254.8" width="23.59" height="22.35"/>
      <rect class="cls-32" x="68.59" y="231.22" width="23.59" height="23.59"/>
      <rect class="cls-26" x="68.59" y="207.63" width="23.59" height="23.59"/>
      <rect class="cls-32" x="68.59" y="185.28" width="23.59" height="22.35"/>
      <rect class="cls-25" x="68.59" y="161.69" width="23.59" height="23.59"/>
      <rect class="cls-26" x="68.59" y="139.35" width="23.59" height="22.35"/>
      <rect class="cls-25" x="68.59" y="115.76" width="23.59" height="23.59"/>
      <rect class="cls-11" x="68.59" y="93.42" width="23.59" height="22.35"/>
      <rect class="cls-13" x="68.59" y="69.83" width="23.59" height="23.59"/>
      <rect class="cls-10" x="68.59" y="47.48" width="23.59" height="22.35"/>
      <rect class="cls-6" x="68.59" y="23.9" width="23.59" height="23.59"/>
      <rect class="cls-11" x="46.25" y="346.67" width="22.35" height="22.35"/>
      <rect class="cls-32" x="46.25" y="323.08" width="22.35" height="23.59"/>
      <rect class="cls-26" x="46.25" y="300.74" width="22.35" height="22.35"/>
      <rect class="cls-32" x="46.25" y="277.15" width="22.35" height="23.59"/>
      <rect class="cls-32" x="46.25" y="254.8" width="22.35" height="22.35"/>
      <rect class="cls-11" x="46.25" y="231.22" width="22.35" height="23.59"/>
      <rect class="cls-32" x="46.25" y="207.63" width="22.35" height="23.59"/>
      <rect class="cls-32" x="46.25" y="185.28" width="22.35" height="22.35"/>
      <rect class="cls-25" x="46.25" y="161.69" width="22.35" height="23.59"/>
      <rect class="cls-26" x="46.25" y="139.35" width="22.35" height="22.35"/>
      <rect class="cls-26" x="46.25" y="115.76" width="22.35" height="23.59"/>
      <rect class="cls-11" x="46.25" y="93.42" width="22.35" height="22.35"/>
      <rect class="cls-22" x="46.25" y="69.83" width="22.35" height="23.59"/>
      <rect class="cls-18" x="46.25" y="47.48" width="22.35" height="22.35"/>
      <rect class="cls-29" x="46.25" y="23.9" width="22.35" height="23.59"/>
      <rect class="cls-32" x="22.66" y="346.67" width="23.59" height="22.35"/>
      <rect class="cls-26" x="22.66" y="323.08" width="23.59" height="23.59"/>
      <rect class="cls-11" x="22.66" y="300.74" width="23.59" height="22.35"/>
      <rect class="cls-32" x="22.66" y="277.15" width="23.59" height="23.59"/>
      <rect class="cls-26" x="22.66" y="254.8" width="23.59" height="22.35"/>
      <rect class="cls-26" x="22.66" y="231.22" width="23.59" height="23.59"/>
      <rect class="cls-32" x="22.66" y="207.63" width="23.59" height="23.59"/>
      <rect class="cls-32" x="22.66" y="185.28" width="23.59" height="22.35"/>
      <rect class="cls-11" x="22.66" y="161.69" width="23.59" height="23.59"/>
      <rect class="cls-11" x="22.66" y="139.35" width="23.59" height="22.35"/>
      <rect class="cls-32" x="22.66" y="115.76" width="23.59" height="23.59"/>
      <rect class="cls-31" x="22.66" y="93.42" width="23.59" height="22.35"/>
      <rect class="cls-11" x="22.66" y="69.83" width="23.59" height="23.59"/>
      <rect class="cls-12" x="22.66" y="47.48" width="23.59" height="22.35"/>
      <rect class="cls-29" x="22.66" y="23.9" width="23.59" height="23.59"/>
    </g>
  </g>
</svg>