<?xml version="1.0" encoding="UTF-8"?>
<svg id="Layer_2" data-name="Layer 2" xmlns="http://www.w3.org/2000/svg" viewBox="0 0 441.35 447.53">
  <defs>
    <style>
      .cls-1 {
        fill: gold;
      }

      .cls-2 {
        stroke: #231f20;
        stroke-miterlimit: 10;
        stroke-width: 4px;
      }

      .cls-2, .cls-3 {
        fill: #231f20;
      }

      .cls-4 {
        fill: #f89c1c;
      }

      .cls-4, .cls-5, .cls-6, .cls-7, .cls-8, .cls-9, .cls-3, .cls-10, .cls-11, .cls-12 {
        stroke-width: 0px;
      }

      .cls-5 {
        fill: #f493a3;
      }

      .cls-6 {
        fill: #24c6ff;
      }

      .cls-7 {
        fill: #0d1f3f;
      }

      .cls-8 {
        fill: #3584c5;
      }

      .cls-9 {
        fill: #366bdb;
      }

      .cls-10 {
        fill: #d5f5f7;
      }

      .cls-11 {
        fill: #fff;
      }

      .cls-12 {
        fill: #ee3c35;
      }
    </style>
  </defs>
  <g id="Layer_4" data-name="Layer 4">
    <g>
      <path class="cls-1" d="m6.21,328.22c-1.37-94.97,1.31-167.56,4.47-262.96.55-16.52,9.29-30.74,22.45-36.36C89.06,4.97,159.52,5.54,220.83,5.62c51.52.06,129.95-.34,188.12,24.41,12.43,5.29,20.66,18.77,21.21,34.37,3.39,95.89,7.86,169.06,6.06,263.93-.04,1.95-3.32,4.43-3.32,4.43h-32c-1.71,0-3.15,1.51-3.23,3.39l-1.32,31.27c-.08,1.85-1.51,3.34-3.2,3.34h-31.81c-1.72,0-3.17,1.52-3.23,3.39l-1.04,31.27c-.06,1.85-1.49,3.34-3.2,3.34H86.77c-1.71,0-3.14-1.49-3.2-3.34l-1.05-31.26c-.06-1.87-1.51-3.4-3.23-3.4h-27.22c-1.74,0-3.21-1.54-3.28-3.43l-1.34-32.08c-.08-1.92-1.57-3.49-3.32-3.49H9.54s-3.3-1.59-3.33-3.56Z"/>
      <path class="cls-4" d="m31.21,175.3l.35,123.47h44.18s1.23,35,1.23,35h28.39s1.09,39,1.09,39l228.71.02,1.46-40.02h28.12l1.2-33h44.27v-124.21c-11.49,0-27.75-.02-39.97-.03.67-19.41,1.36-38.99,2.04-58.75-101.12-.36-202.31-.72-303.58-1.08.7,20.06,1.4,39.94,2.09,59.63-12.24,0-39.58-.03-39.58-.03Z"/>
      <path class="cls-11" d="m37.21,169.75l.28,125.02h41.98s1.15,34,1.15,34h28.55s1.03,38,1.03,38l220.76.02,1.37-39.02,27.11.37,1.14-34.37h42.63s.75-123.76.75-123.76c-11.79,0-27.5-.02-39.29-.03.64-19.41,1.29-38.98,1.94-58.74-97.62-.36-195.3-.72-293.05-1.08.67,20.05,1.34,39.92,2,59.61-11.82,0-26.53-.02-38.35-.03Z"/>
      <path class="cls-8" d="m440.86,179.76c-1.81,2.18-3.61,4.37-5.41,6.55-2.06-.13-4.11-.27-6.16-.41-24.32-.93-48.65-1.68-72.99-2.24.46-14.01.92-28.02,1.37-42.02-23.73-.5-47.47-.83-71.21-.97-.12,8.46-.25,16.92-.37,25.39-43.88-.51-87.76-.41-131.63.31.23-8.76.46-17.52.69-26.27-22.99.18-45.98.52-68.97,1.04.1,3.65.21,7.31.32,10.96.3,10.46.61,20.93.91,31.39-26.83.81-53.66,1.86-80.49,3.14-.86-1.39-1.72-2.77-2.58-4.15-.86-1.39-2.45-3.49-3.31-4.88,5.24-33.89,6.15-60.22,5.28-79.01-.58-12.43,1.22-21.87,2.28-35.31,1.79-22.49,16.78-40.59,36.22-43.26.73-.1,1.46-.2,2.19-.3,55.27-7.51,115.29-12.09,179.4-11.93,65.95.17,127.5,5.32,183.96,13.49,17.32,2.51,24.68,18.1,26.28,38.2.98,12.3,2.22,20.47,2.8,42.43.97,36.33,1.17,52.95,1.23,58.59.09,8.1.14,14.77.17,19.25Z"/>
      <path class="cls-6" d="m6.75,181.45c25.27-1.14,50.55-2.07,75.83-2.8-.46-14.98-.92-29.97-1.38-44.96,24.58-.71,49.16-1.23,73.74-1.56.13,8.97.25,17.94.38,26.9,43.38-.57,86.78-.54,130.16.09.12-8.69.25-17.37.37-26.06,24.4.36,48.81.91,73.2,1.65-.45,14.62-.89,29.23-1.34,43.85,26.39.77,52.77,1.77,79.15,2.99,0,0,4.48-1.71,4.49-4.4.04-25.36-.56-52.41-2-81.06-.74-14.68-1.67-29.1-2.76-43.22-1.58-20.48-14.89-36.93-32.17-39.44C348.07,5.24,286.64.09,220.83,0,156.01-.09,95.38,4.73,39.64,12.57,20.25,15.3,5.33,33.73,3.59,56.65c-.89,11.73-1.64,23.73-2.22,35.97C-.01,121.91-.27,149.26.24,174.51c.08,3.99,6.5,6.95,6.5,6.95Z"/>
      <path class="cls-11" d="m424.62,133.77l-29.65-1.09c-2.71-.02-4.82-2.49-4.73-5.55.41-12.99-1.27-28.58-3.66-46.1-2.13-15.63-4.07-29.44-7.49-41-1.13-3.84.76-8.56,4.33-8.55l31.23.64c2.17,0,4.62,1.73,5.21,4.1,3.31,13.24,5.78,28.53,7.76,45.84,1.9,16.65,2.46,31.81,2.3,45.01-.04,3.2-2.47,6.72-5.3,6.7Z"/>
      <path class="cls-11" d="m436.21,282.77H6.21v32.44c.05,4.27.1,8.57.16,12.93.03,1.98,1.55,3.63,3.36,3.64h34.94c1.75,0,3.24,1.57,3.32,3.49l1.34,32.08c.08,1.89,1.55,3.43,3.28,3.43h26.77c1.68,0,3.09,1.48,3.15,3.31l1.02,30.44c.06,1.8,1.46,3.25,3.12,3.25h267.3c1.66,0,3.05-1.46,3.11-3.25l1.01-30.44c.06-1.83,1.47-3.31,3.14-3.31h31.81c1.73,0,3.2-1.53,3.28-3.42l1.36-32.09c.08-1.92,1.57-3.49,3.32-3.49h31.68c1.77,0,3.28-1.62,3.31-3.58.08-4.42.15-8.78.21-13.11v-32.31Z"/>
      <path class="cls-10" d="m221.44,356.29l-182.98-73.51-32.41-.02,109.34,84.38c7.18,5.54,16.41,7.67,25.29,5.84l80.77-16.69Z"/>
      <path class="cls-10" d="m221.24,356.29l182.98-73.51,32.41-.02-109.34,84.38c-7.18,5.54-16.41,7.67-25.29,5.84l-80.77-16.69Z"/>
      <path class="cls-12" d="m273.21,270.39c-.79,1.05-2.51,1.38-2.51,1.38h-11.75c-.95,0-1.73.88-1.74,1.94l-.09,12.14c0,1.06-.78,1.92-1.73,1.92l-69.44.04c-.95,0-1.72-.86-1.73-1.92v-11.63s-1.03-1.9-1.98-1.5h-10.92c-.95-.4-1.73-1.25-1.74-2.3,0,0-.68-20.65.27-20.65,16.79,0,28.99-.17,47.3,0,18.06.17,39.27-.55,56.06-.47v21.04Z"/>
      <g>
        <rect class="cls-5" x="89.21" y="231.77" width="51" height="30" rx="7.93" ry="7.93"/>
        <rect class="cls-5" x="302.21" y="231.77" width="51" height="30" rx="7.93" ry="7.93"/>
      </g>
      <g>
        <rect class="cls-7" x="284.71" y="377.27" width="5" height="6"/>
        <rect class="cls-7" x="284.71" y="371.28" width="5" height="5.99"/>
        <rect class="cls-7" x="284.71" y="365.27" width="5" height="6"/>
        <rect class="cls-7" x="284.71" y="360.27" width="5" height="5"/>
        <rect class="cls-7" x="284.71" y="354.27" width="5" height="6"/>
        <rect class="cls-7" x="284.71" y="348.27" width="5" height="6"/>
        <rect class="cls-7" x="284.71" y="342.27" width="5" height="6"/>
        <rect class="cls-7" x="284.71" y="336.28" width="5" height="5.99"/>
        <rect class="cls-7" x="284.71" y="330.27" width="5" height="6"/>
        <rect class="cls-7" x="284.71" y="325.27" width="5" height="5"/>
        <rect class="cls-7" x="284.71" y="319.27" width="5" height="6"/>
        <rect class="cls-7" x="284.71" y="313.27" width="5" height="6"/>
        <rect class="cls-7" x="278.71" y="377.27" width="6.01" height="6"/>
        <rect class="cls-9" x="278.71" y="371.28" width="6.01" height="5.99"/>
        <rect class="cls-9" x="278.71" y="365.27" width="6.01" height="6"/>
        <rect class="cls-9" x="278.71" y="360.27" width="6.01" height="5"/>
        <rect class="cls-9" x="278.71" y="354.27" width="6.01" height="6"/>
        <rect class="cls-9" x="278.71" y="348.27" width="6.01" height="6"/>
        <rect class="cls-9" x="278.71" y="342.27" width="6.01" height="6"/>
        <rect class="cls-11" x="278.71" y="336.28" width="6.01" height="5.99"/>
        <rect class="cls-9" x="278.71" y="330.27" width="6.01" height="6"/>
        <rect class="cls-11" x="278.71" y="325.27" width="6.01" height="5"/>
        <rect class="cls-11" x="278.71" y="319.27" width="6.01" height="6"/>
        <rect class="cls-7" x="278.71" y="313.27" width="6.01" height="6"/>
        <rect class="cls-7" x="272.71" y="377.27" width="6" height="6"/>
        <rect class="cls-9" x="272.71" y="371.28" width="6" height="5.99"/>
        <rect class="cls-9" x="272.71" y="365.27" width="6" height="6"/>
        <rect class="cls-9" x="272.71" y="360.27" width="6" height="5"/>
        <rect class="cls-9" x="272.71" y="354.27" width="6" height="6"/>
        <rect class="cls-9" x="272.71" y="348.27" width="6" height="6"/>
        <rect class="cls-9" x="272.71" y="342.27" width="6" height="6"/>
        <rect class="cls-9" x="272.71" y="336.28" width="6" height="5.99"/>
        <rect class="cls-9" x="272.71" y="330.27" width="6" height="6"/>
        <rect class="cls-9" x="272.71" y="325.27" width="6" height="5"/>
        <rect class="cls-11" x="272.71" y="319.27" width="6" height="6"/>
        <rect class="cls-7" x="272.71" y="313.27" width="6" height="6"/>
        <rect class="cls-7" x="266.71" y="377.27" width="6" height="6"/>
        <rect class="cls-9" x="266.71" y="371.28" width="6" height="5.99"/>
        <rect class="cls-9" x="266.71" y="365.27" width="6" height="6"/>
        <rect class="cls-9" x="266.71" y="360.27" width="6" height="5"/>
        <rect class="cls-9" x="266.71" y="354.27" width="6" height="6"/>
        <rect class="cls-9" x="266.71" y="348.27" width="6" height="6"/>
        <rect class="cls-9" x="266.71" y="342.27" width="6" height="6"/>
        <rect class="cls-9" x="266.71" y="336.28" width="6" height="5.99"/>
        <rect class="cls-9" x="266.71" y="330.27" width="6" height="6"/>
        <rect class="cls-9" x="266.71" y="325.27" width="6" height="5"/>
        <rect class="cls-11" x="266.71" y="319.27" width="6" height="6"/>
        <rect class="cls-7" x="266.71" y="313.27" width="6" height="6"/>
        <rect class="cls-7" x="260.71" y="377.27" width="6.01" height="6"/>
        <rect class="cls-9" x="260.71" y="371.28" width="6.01" height="5.99"/>
        <rect class="cls-9" x="260.71" y="365.27" width="6.01" height="6"/>
        <rect class="cls-9" x="260.71" y="360.27" width="6.01" height="5"/>
        <rect class="cls-9" x="260.71" y="354.27" width="6.01" height="6"/>
        <rect class="cls-9" x="260.71" y="348.27" width="6.01" height="6"/>
        <rect class="cls-9" x="260.71" y="342.27" width="6.01" height="6"/>
        <rect class="cls-9" x="260.71" y="336.28" width="6.01" height="5.99"/>
        <rect class="cls-9" x="260.71" y="330.27" width="6.01" height="6"/>
        <rect class="cls-9" x="260.71" y="325.27" width="6.01" height="5"/>
        <rect class="cls-9" x="260.71" y="319.27" width="6.01" height="6"/>
        <rect class="cls-7" x="260.71" y="313.27" width="6.01" height="6"/>
        <rect class="cls-7" x="255.71" y="371.28" width="5" height="5.99"/>
        <rect class="cls-9" x="255.71" y="365.27" width="5" height="6"/>
        <rect class="cls-9" x="255.71" y="360.27" width="5" height="5"/>
        <rect class="cls-9" x="255.71" y="354.27" width="5" height="6"/>
        <rect class="cls-9" x="255.71" y="348.27" width="5" height="6"/>
        <rect class="cls-9" x="255.71" y="342.27" width="5" height="6"/>
        <rect class="cls-9" x="255.71" y="336.28" width="5" height="5.99"/>
        <rect class="cls-9" x="255.71" y="330.27" width="5" height="6"/>
        <rect class="cls-9" x="255.71" y="325.27" width="5" height="5"/>
        <rect class="cls-7" x="255.71" y="319.27" width="5" height="6"/>
        <rect class="cls-7" x="249.71" y="371.28" width="6" height="5.99"/>
        <rect class="cls-9" x="249.71" y="365.27" width="6" height="6"/>
        <rect class="cls-7" x="249.71" y="360.27" width="6" height="5"/>
        <rect class="cls-9" x="249.71" y="354.27" width="6" height="6"/>
        <rect class="cls-9" x="249.71" y="348.27" width="6" height="6"/>
        <rect class="cls-9" x="249.71" y="342.27" width="6" height="6"/>
        <rect class="cls-7" x="249.71" y="336.28" width="6" height="5.99"/>
        <rect class="cls-9" x="249.71" y="330.27" width="6" height="6"/>
        <rect class="cls-9" x="249.71" y="325.27" width="6" height="5"/>
        <rect class="cls-7" x="249.71" y="319.27" width="6" height="6"/>
        <rect class="cls-7" x="243.71" y="365.27" width="6.01" height="6"/>
        <rect class="cls-9" x="243.71" y="360.27" width="6.01" height="5"/>
        <rect class="cls-7" x="243.71" y="354.27" width="6.01" height="6"/>
        <rect class="cls-9" x="243.71" y="348.27" width="6.01" height="6"/>
        <rect class="cls-7" x="243.71" y="342.27" width="6.01" height="6"/>
        <rect class="cls-9" x="243.71" y="336.28" width="6.01" height="5.99"/>
        <rect class="cls-9" x="243.71" y="330.27" width="6.01" height="6"/>
        <rect class="cls-7" x="243.71" y="325.27" width="6.01" height="5"/>
        <rect class="cls-7" x="237.71" y="360.27" width="6" height="5"/>
        <rect class="cls-9" x="237.71" y="354.27" width="6" height="6"/>
        <rect class="cls-7" x="237.71" y="348.27" width="6" height="6"/>
        <rect class="cls-9" x="237.71" y="342.27" width="6" height="6"/>
        <rect class="cls-9" x="237.71" y="336.28" width="6" height="5.99"/>
        <rect class="cls-7" x="237.71" y="330.27" width="6" height="6"/>
        <rect class="cls-7" x="231.71" y="354.27" width="6.01" height="6"/>
        <rect class="cls-7" x="231.71" y="348.27" width="6.01" height="6"/>
        <rect class="cls-7" x="231.71" y="342.27" width="6.01" height="6"/>
        <rect class="cls-7" x="231.71" y="336.28" width="6.01" height="5.99"/>
        <rect class="cls-7" x="226.71" y="354.27" width="5" height="6"/>
        <rect class="cls-9" x="226.71" y="348.27" width="5" height="6"/>
        <rect class="cls-9" x="226.71" y="342.27" width="5" height="6"/>
        <rect class="cls-7" x="226.71" y="336.28" width="5" height="5.99"/>
        <rect class="cls-7" x="220.71" y="354.27" width="6" height="6"/>
        <rect class="cls-9" x="220.71" y="348.27" width="6" height="6"/>
        <rect class="cls-9" x="220.71" y="342.27" width="6" height="6"/>
        <rect class="cls-7" x="220.71" y="336.28" width="6" height="5.99"/>
        <rect class="cls-7" x="214.71" y="354.27" width="6.01" height="6"/>
        <rect class="cls-7" x="214.71" y="348.27" width="6.01" height="6"/>
        <rect class="cls-7" x="214.71" y="342.27" width="6.01" height="6"/>
        <rect class="cls-7" x="214.71" y="336.28" width="6.01" height="5.99"/>
        <rect class="cls-7" x="208.71" y="360.27" width="6" height="5"/>
        <rect class="cls-9" x="208.71" y="354.27" width="6" height="6"/>
        <rect class="cls-7" x="208.71" y="348.27" width="6" height="6"/>
        <rect class="cls-9" x="208.71" y="342.27" width="6" height="6"/>
        <rect class="cls-9" x="208.71" y="336.28" width="6" height="5.99"/>
        <rect class="cls-7" x="208.71" y="330.27" width="6" height="6"/>
        <rect class="cls-7" x="202.71" y="365.27" width="6" height="6"/>
        <rect class="cls-9" x="202.71" y="360.27" width="6" height="5"/>
        <rect class="cls-7" x="202.71" y="354.27" width="6" height="6"/>
        <rect class="cls-9" x="202.71" y="348.27" width="6" height="6"/>
        <rect class="cls-7" x="202.71" y="342.27" width="6" height="6"/>
        <rect class="cls-9" x="202.71" y="336.28" width="6" height="5.99"/>
        <rect class="cls-9" x="202.71" y="330.27" width="6" height="6"/>
        <rect class="cls-7" x="202.71" y="325.27" width="6" height="5"/>
        <rect class="cls-7" x="196.71" y="371.28" width="6.01" height="5.99"/>
        <rect class="cls-9" x="196.71" y="365.27" width="6.01" height="6"/>
        <rect class="cls-7" x="196.71" y="360.27" width="6.01" height="5"/>
        <rect class="cls-9" x="196.71" y="354.27" width="6.01" height="6"/>
        <rect class="cls-9" x="196.71" y="348.27" width="6.01" height="6"/>
        <rect class="cls-9" x="196.71" y="342.27" width="6.01" height="6"/>
        <rect class="cls-7" x="196.71" y="336.28" width="6.01" height="5.99"/>
        <rect class="cls-9" x="196.71" y="330.27" width="6.01" height="6"/>
        <rect class="cls-9" x="196.71" y="325.27" width="6.01" height="5"/>
        <rect class="cls-7" x="196.71" y="319.27" width="6.01" height="6"/>
        <rect class="cls-7" x="191.71" y="371.28" width="5" height="5.99"/>
        <rect class="cls-9" x="191.71" y="365.27" width="5" height="6"/>
        <rect class="cls-9" x="191.71" y="360.27" width="5" height="5"/>
        <rect class="cls-9" x="191.71" y="354.27" width="5" height="6"/>
        <rect class="cls-9" x="191.71" y="348.27" width="5" height="6"/>
        <rect class="cls-9" x="191.71" y="342.27" width="5" height="6"/>
        <rect class="cls-9" x="191.71" y="336.28" width="5" height="5.99"/>
        <rect class="cls-9" x="191.71" y="330.27" width="5" height="6"/>
        <rect class="cls-9" x="191.71" y="325.27" width="5" height="5"/>
        <rect class="cls-7" x="191.71" y="319.27" width="5" height="6"/>
        <rect class="cls-7" x="185.71" y="377.27" width="6" height="6"/>
        <rect class="cls-9" x="185.71" y="371.28" width="6" height="5.99"/>
        <rect class="cls-9" x="185.71" y="365.27" width="6" height="6"/>
        <rect class="cls-9" x="185.71" y="360.27" width="6" height="5"/>
        <rect class="cls-9" x="185.71" y="354.27" width="6" height="6"/>
        <rect class="cls-9" x="185.71" y="348.27" width="6" height="6"/>
        <rect class="cls-9" x="185.71" y="342.27" width="6" height="6"/>
        <rect class="cls-9" x="185.71" y="336.28" width="6" height="5.99"/>
        <rect class="cls-9" x="185.71" y="330.27" width="6" height="6"/>
        <rect class="cls-9" x="185.71" y="325.27" width="6" height="5"/>
        <rect class="cls-9" x="185.71" y="319.27" width="6" height="6"/>
        <rect class="cls-7" x="185.71" y="313.27" width="6" height="6"/>
        <rect class="cls-7" x="179.71" y="377.27" width="6.01" height="6"/>
        <rect class="cls-9" x="179.71" y="371.28" width="6.01" height="5.99"/>
        <rect class="cls-9" x="179.71" y="365.27" width="6.01" height="6"/>
        <rect class="cls-9" x="179.71" y="360.27" width="6.01" height="5"/>
        <rect class="cls-9" x="179.71" y="354.27" width="6.01" height="6"/>
        <rect class="cls-9" x="179.71" y="348.27" width="6.01" height="6"/>
        <rect class="cls-9" x="179.71" y="342.27" width="6.01" height="6"/>
        <rect class="cls-9" x="179.71" y="336.28" width="6.01" height="5.99"/>
        <rect class="cls-9" x="179.71" y="330.27" width="6.01" height="6"/>
        <rect class="cls-9" x="179.71" y="325.27" width="6.01" height="5"/>
        <rect class="cls-9" x="179.71" y="319.27" width="6.01" height="6"/>
        <rect class="cls-7" x="179.71" y="313.27" width="6.01" height="6"/>
        <rect class="cls-7" x="173.71" y="377.27" width="6" height="6"/>
        <rect class="cls-9" x="173.71" y="371.28" width="6" height="5.99"/>
        <rect class="cls-9" x="173.71" y="365.27" width="6" height="6"/>
        <rect class="cls-9" x="173.71" y="360.27" width="6" height="5"/>
        <rect class="cls-9" x="173.71" y="354.27" width="6" height="6"/>
        <rect class="cls-9" x="173.71" y="348.27" width="6" height="6"/>
        <rect class="cls-9" x="173.71" y="342.27" width="6" height="6"/>
        <rect class="cls-9" x="173.71" y="336.28" width="6" height="5.99"/>
        <rect class="cls-9" x="173.71" y="330.27" width="6" height="6"/>
        <rect class="cls-9" x="173.71" y="325.27" width="6" height="5"/>
        <rect class="cls-9" x="173.71" y="319.27" width="6" height="6"/>
        <rect class="cls-7" x="173.71" y="313.27" width="6" height="6"/>
        <rect class="cls-7" x="167.71" y="377.27" width="6.01" height="6"/>
        <rect class="cls-9" x="167.71" y="371.28" width="6.01" height="5.99"/>
        <rect class="cls-9" x="167.71" y="365.27" width="6.01" height="6"/>
        <rect class="cls-9" x="167.71" y="360.27" width="6.01" height="5"/>
        <rect class="cls-9" x="167.71" y="354.27" width="6.01" height="6"/>
        <rect class="cls-9" x="167.71" y="348.27" width="6.01" height="6"/>
        <rect class="cls-9" x="167.71" y="342.27" width="6.01" height="6"/>
        <rect class="cls-9" x="167.71" y="336.28" width="6.01" height="5.99"/>
        <rect class="cls-9" x="167.71" y="330.27" width="6.01" height="6"/>
        <rect class="cls-9" x="167.71" y="325.27" width="6.01" height="5"/>
        <rect class="cls-9" x="167.71" y="319.27" width="6.01" height="6"/>
        <rect class="cls-7" x="167.71" y="313.27" width="6.01" height="6"/>
        <rect class="cls-7" x="162.71" y="377.27" width="5" height="6"/>
        <rect class="cls-7" x="162.71" y="371.28" width="5" height="5.99"/>
        <rect class="cls-7" x="162.71" y="365.27" width="5" height="6"/>
        <rect class="cls-7" x="162.71" y="360.27" width="5" height="5"/>
        <rect class="cls-7" x="162.71" y="354.27" width="5" height="6"/>
        <rect class="cls-7" x="162.71" y="348.27" width="5" height="6"/>
        <rect class="cls-7" x="162.71" y="342.27" width="5" height="6"/>
        <rect class="cls-7" x="162.71" y="336.28" width="5" height="5.99"/>
        <rect class="cls-7" x="162.71" y="330.27" width="5" height="6"/>
        <rect class="cls-7" x="162.71" y="325.27" width="5" height="5"/>
        <rect class="cls-7" x="162.71" y="319.27" width="5" height="6"/>
        <rect class="cls-7" x="162.71" y="313.27" width="5" height="6"/>
      </g>
      <g>
        <path class="cls-2" d="m307.27,223.75c-.83,0-1.67-.18-2.46-.57l-21.14-10.31c-2.97-1.45-4.87-4.4-4.96-7.7-.09-3.3,1.64-6.35,4.52-7.96l20.3-11.36c2.71-1.51,6.13-.55,7.65,2.16,1.52,2.71.55,6.13-2.16,7.65l-16.29,9.12,17.01,8.3c2.79,1.36,3.95,4.73,2.59,7.52-.97,2-2.97,3.16-5.06,3.16Z"/>
        <path class="cls-3" d="m152.98,224.41c-5.51-.11-11.03-.11-16.54,0-5.98.12-10.66-4.32-10.47-10.11.16-5.35.32-10.7.48-16.06.19-5.78,4.88-10.7,10.47-10.81,5.19-.11,10.39-.11,15.58,0,5.59.11,10.28,5.03,10.47,10.81.16,5.35.32,10.7.48,16.06.19,5.79-4.5,10.23-10.47,10.11Z"/>
      </g>
      <rect class="cls-7" x="223.21" y="372.77" width="7" height="7"/>
      <rect class="cls-7" x="223.21" y="389.77" width="7" height="7"/>
    </g>
  </g>
</svg>