<?xml version="1.0" encoding="UTF-8"?>
<svg id="Layer_2" data-name="Layer 2" xmlns="http://www.w3.org/2000/svg" viewBox="0 0 441.36 408.87">
  <defs>
    <style>
      .cls-1 {
        fill: #24c6ff;
      }

      .cls-2 {
        stroke: #231f20;
        stroke-miterlimit: 10;
        stroke-width: 4px;
      }

      .cls-2, .cls-3 {
        fill: #231f20;
      }

      .cls-4 {
        fill: #f493a3;
      }

      .cls-4, .cls-5, .cls-3, .cls-6, .cls-7, .cls-8, .cls-9 {
        stroke-width: 0px;
      }

      .cls-5 {
        fill: #2d7ad6;
      }

      .cls-6 {
        fill: #fff;
      }

      .cls-7 {
        fill: #ff9e03;
      }

      .cls-8 {
        fill: #ffd602;
      }

      .cls-9 {
        fill: #ee3c35;
      }
    </style>
  </defs>
  <g id="Layer_4" data-name="Layer 4">
    <g>
      <path class="cls-1" d="m6.22,328.22c-1.37-94.97,1.31-167.56,4.47-262.96.55-16.52,9.29-30.74,22.45-36.36C89.07,4.97,159.53,5.55,220.83,5.62c51.52.06,129.95-.34,188.12,24.41,12.43,5.29,20.66,18.77,21.21,34.37,3.39,95.89,7.86,169.06,6.06,263.93-.04,1.95-3.32,3.53-3.32,3.53h-31.9c-1.75,0-3.24,1.55-3.32,3.48l-1.36,32.09c-.08,1.89-1.55,3.43-3.29,3.43h-31.71c-1.72,0-3.17,1.52-3.23,3.39l-1.04,31.27c-.06,1.85-1.49,3.34-3.2,3.34H86.78c-1.71,0-3.14-1.49-3.2-3.34l-1.05-31.26c-.06-1.87-1.51-3.4-3.23-3.4h-27.12c-1.78,0-3.29-1.58-3.37-3.52l-1.37-32.91c-.08-1.97-1.61-3.58-3.4-3.58H9.55s-3.3-.69-3.33-2.65Z"/>
      <path class="cls-5" d="m31.1,175.07l.35,123.8h44.18s1.23,35,1.23,35h28.5s1.09,39,1.09,39l228.71.02,1.46-40.02,28.14.37,1.2-34.37h44.14s.86-123.54.86-123.54c-12.21,0-28.48-.02-40.7-.03.67-19.38,1.36-38.93,2.04-58.67-101.12-.36-202.31-.72-303.58-1.08.7,20.03,1.4,39.88,2.09,59.54-12.24,0-27.48-.02-39.72-.03Z"/>
      <path class="cls-6" d="m37.1,169.85l.28,125.02h41.98s1.15,34,1.15,34h28.65s1.06,39,1.06,39l220.73.03,1.41-40.03,26.98.37,1.14-34.37h42.63s.75-123.76.75-123.76c-11.79,0-27.5-.02-39.29-.03.64-19.41,1.29-38.98,1.94-58.74-97.62-.36-195.3-.72-293.05-1.08.67,20.05,1.34,39.92,2,59.61-11.82,0-26.53-.02-38.35-.03Z"/>
      <path class="cls-7" d="m440.76,179.69c-1.81,2.24-3.61,4.48-5.42,6.71-2.05-.14-4.11-.28-6.16-.41-24.32-.93-48.65-1.68-72.99-2.23.47-14.34.93-28.68,1.4-43.03-23.74-.5-47.48-.82-71.22-.95-.13,8.79-.25,17.58-.38,26.37-43.88-.51-87.77-.41-131.64.31.23-8.76.45-17.52.68-26.27-22.96.18-45.92.52-68.87,1.04.11,3.66.22,7.31.32,10.97.31,10.46.62,20.93.93,31.39-26.87.82-53.74,1.86-80.6,3.14-.86-1.42-1.72-2.84-2.58-4.25-.86-1.42-2.45-3.57-3.31-5,5.2-34.69,6.09-61.65,5.19-80.89-.59-12.72,1.19-22.39,2.25-36.15,1.77-23.03,16.75-41.54,36.2-44.25.73-.1,1.46-.2,2.2-.3C102.07,8.25,162.14,3.59,226.31,3.76c66.01.17,127.61,5.42,184.12,13.73,17.33,2.56,24.68,18.5,26.26,39.09.97,12.59,2.2,20.96,2.76,43.43.93,37.19,1.11,54.21,1.16,59.98.09,8.3.12,15.12.15,19.71Z"/>
      <path class="cls-8" d="m6.76,181.55c25.27-1.14,50.55-2.07,75.83-2.8-.46-14.99-.93-29.97-1.39-44.96,24.88-.72,49.76-1.24,74.65-1.57.13,8.97.26,17.94.38,26.9,43.39-.57,86.78-.53,130.16.11.13-8.69.25-17.37.38-26.06,24.96.37,49.92.94,74.87,1.71-.46,14.95-.92,29.9-1.38,44.85,25.54.76,51.07,1.73,76.6,2.91,0,0,4.49-2.81,4.49-5.49.04-25.36-.55-52.41-1.98-81.06-.74-14.68-1.67-29.1-2.75-43.22-1.58-20.48-14.88-36.93-32.17-39.44C348.1,5.25,286.66.09,220.83,0,156-.09,95.36,4.73,39.61,12.57,20.22,15.3,5.29,33.73,3.56,56.65c-.89,11.73-1.63,23.73-2.21,35.97C-.02,121.91-.27,149.26.25,174.51c.08,3.99,6.51,7.04,6.5,7.05Z"/>
      <path class="cls-6" d="m424.62,133.77l-29.65-1.09c-2.71-.02-4.82-2.49-4.73-5.55.41-12.99-1.27-28.58-3.66-46.1-2.13-15.63-4.07-29.44-7.49-41-1.13-3.84.76-8.56,4.33-8.55l31.23.64c2.17,0,4.62,1.73,5.21,4.1,3.31,13.24,5.78,28.53,7.76,45.84,1.9,16.65,2.46,31.81,2.3,45.01-.04,3.2-2.47,6.72-5.3,6.7Z"/>
      <path class="cls-9" d="m273.1,270.4c-.67,1.05-2.4,2.47-2.4,2.47h-11.86c-.95,0-1.73.82-1.74,1.82l-.09,11.38c0,.99-.78,1.8-1.73,1.8l-69.44.04c-.95,0-1.72-.8-1.73-1.8v-11.84s-.92-1.9-1.87-2.4h-10.92c-.95.51-1.73-.35-1.74-1.4,0,0-.68-20.65.27-20.65,16.79,0,28.99-.17,47.3,0,18.06.17,39.27-.55,55.95-.47v21.04Z"/>
      <g>
        <rect class="cls-4" x="89.1" y="231.87" width="51" height="30" rx="7.93" ry="7.93"/>
        <rect class="cls-4" x="302.1" y="231.87" width="51" height="30" rx="7.93" ry="7.93"/>
      </g>
      <g>
        <path class="cls-2" d="m131.56,223.75c.83,0,1.67-.18,2.46-.57l21.14-10.31c2.97-1.45,4.87-4.4,4.96-7.7.09-3.3-1.64-6.35-4.52-7.96l-20.3-11.36c-2.71-1.51-6.13-.55-7.65,2.16-1.52,2.71-.55,6.13,2.16,7.65l16.29,9.12-17.01,8.3c-2.79,1.36-3.95,4.73-2.59,7.52.97,2,2.97,3.16,5.06,3.16Z"/>
        <path class="cls-3" d="m286.33,224.51c5.51-.11,11.03-.11,16.54,0,5.98.12,10.66-4.32,10.47-10.11-.16-5.35-.32-10.7-.48-16.06-.19-5.78-4.88-10.7-10.47-10.81-5.19-.11-10.39-.11-15.58,0-5.59.11-10.28,5.03-10.47,10.81-.16,5.35-.32,10.7-.48,16.06-.19,5.79,4.49,10.23,10.47,10.11Z"/>
      </g>
    </g>
  </g>
</svg>