<?xml version="1.0" encoding="UTF-8"?>
<svg id="Layer_2" data-name="Layer 2" xmlns="http://www.w3.org/2000/svg" viewBox="0 0 408.2 425.58">
  <defs>
    <style>
      .cls-1 {
        fill: gold;
      }

      .cls-2 {
        fill: #231f20;
        stroke: #231f20;
        stroke-miterlimit: 10;
        stroke-width: 4px;
      }

      .cls-3 {
        fill: #f89c1c;
      }

      .cls-3, .cls-4, .cls-5, .cls-6, .cls-7, .cls-8, .cls-9, .cls-10, .cls-11, .cls-12, .cls-13 {
        stroke-width: 0px;
      }

      .cls-4 {
        fill: #f493a3;
      }

      .cls-5 {
        fill: #77e5d0;
      }

      .cls-6 {
        fill: #26bfb8;
      }

      .cls-7 {
        fill: #24c6ff;
      }

      .cls-8 {
        fill: #3584c5;
      }

      .cls-9 {
        fill: #221f1f;
      }

      .cls-10 {
        fill: #d5f5f7;
      }

      .cls-11 {
        fill: #fff;
      }

      .cls-12 {
        fill: #ee3c35;
      }

      .cls-13 {
        fill: #053477;
      }
    </style>
  </defs>
  <g id="Layer_4" data-name="Layer 4">
    <g>
      <g>
        <path class="cls-1" d="m5.16,272.53c-1.13-78.86,1.09-139.13,3.71-218.35.45-13.72,7.71-25.52,18.64-30.19C73.95,4.13,132.46,4.6,183.36,4.67c42.78.05,107.9-.28,156.21,20.27,10.32,4.39,17.16,15.59,17.61,28.54,2.81,79.62,6.53,140.38,5.03,219.16-.03,1.62-2.75,3.25-2.75,3.25h-26.52c-1.44,0-2.65,1.27-2.72,2.85l-1.12,26.33c-.07,1.55-1.27,2.81-2.7,2.81h-26.42c-1.4,0-2.58,1.24-2.63,2.77l-.85,25.51c-.05,1.51-1.22,2.72-2.61,2.72H72c-1.39,0-2.56-1.22-2.61-2.72l-.86-25.5c-.05-1.53-1.23-2.77-2.64-2.77h-22.6c-1.47,0-2.71-1.3-2.78-2.9l-1.13-27.15c-.07-1.63-1.32-2.95-2.81-2.95H7.92s-2.74-.72-2.76-2.35Z"/>
        <path class="cls-3" d="m25.6,146.93l.29,100.96h36.61s1.02,29,1.02,29h23.96s.93,33,.93,33l189.9.02,1.2-33.02,23.41.31.99-28.31h36.69s.71-101.74.71-101.74c-10.15,0-23.67-.02-33.82-.02.56-15.96,1.13-32.06,1.7-48.31-84.04-.3-168.15-.59-252.31-.89.58,16.5,1.16,32.84,1.74,49.03-10.17,0-22.84-.02-33.01-.02Z"/>
        <path class="cls-11" d="m30.6,142.73l.23,102.16h34.57s.95,28,.95,28h24.29s.87,32,.87,32l183.29.02,1.16-33.02h22.57l.94-27h35.13v-101.94c-8.91,0-21.95-.02-31.74-.02.53-15.92,1.07-31.99,1.61-48.2-81.01-.29-162.08-.59-243.21-.88.56,16.45,1.11,32.76,1.66,48.92-9.81,0-32.32-.02-32.32-.02Z"/>
        <path class="cls-8" d="m365.86,149.87c-1.5,1.87-3,3.75-4.5,5.62-1.7-.11-3.41-.23-5.12-.34-20.2-.77-40.39-1.39-60.6-1.85.39-12.01.78-24.01,1.17-36.02-19.71-.41-39.43-.68-59.14-.79-.1,7.16-.21,14.32-.31,21.48-35.44-.42-70.89-.34-106.33.21.18-7.07.36-14.15.54-21.22-20.02.14-40.03.44-60.04.9.09,3.05.18,6.09.27,9.14.26,8.72.52,17.44.78,26.16-22.36.68-44.71,1.55-67.06,2.61-.71-1.19-1.43-2.38-2.15-3.56-.72-1.19-2.04-2.99-2.75-4.18,4.31-29.04,5.04-51.61,4.29-67.72-.5-10.65.98-18.74,1.86-30.26,1.46-19.28,13.9-34.77,30.06-37.04.61-.08,1.22-.17,1.82-.25C84.6,6.37,134.49,2.47,187.79,2.62c54.83.14,106,4.52,152.92,11.47,14.4,2.14,20.49,15.48,21.8,32.72.8,10.54,1.82,17.55,2.28,36.36.76,31.14.9,45.38.95,50.22.07,6.94.1,12.66.12,16.5Z"/>
        <path class="cls-7" d="m5.6,150.62c20.98-.95,41.97-1.72,62.96-2.33-.38-12.32-.76-24.64-1.13-36.96,20.37-.59,40.74-1.02,61.12-1.29.11,7.31.21,14.61.32,21.92,36.27-.48,72.54-.46,108.81.08.1-7.35.21-14.7.31-22.05,20.52.31,41.04.77,61.56,1.4-.38,12.29-.75,24.58-1.13,36.87,21.45.64,42.89,1.45,64.33,2.44,0,0,3.72-1.37,3.73-3.6.03-21.05-.46-43.52-1.67-67.31-.62-12.19-1.39-24.16-2.29-35.89-1.31-17.01-12.36-30.66-26.71-32.75C289.01,4.36,238.01.08,183.36,0c-53.82-.08-104.16,3.93-150.45,10.44C16.82,12.7,4.43,28,2.98,47.04c-.74,9.74-1.36,19.7-1.84,29.87C0,101.23-.22,123.94.2,144.9c.07,3.32,5.4,5.72,5.4,5.72Z"/>
        <path class="cls-11" d="m352.58,111.08l-24.62-.9c-2.25-.02-4.01-2.07-3.92-4.61.34-10.78-1.06-23.73-3.04-38.28-1.77-12.98-3.38-24.44-6.22-34.04-.94-3.18.63-7.1,3.59-7.1l25.93.53c1.81,0,3.84,1.44,4.33,3.41,2.75,11,4.8,23.69,6.44,38.06,1.58,13.82,2.04,26.41,1.91,37.38-.03,2.66-2.05,5.58-4.4,5.56Z"/>
        <path class="cls-6" d="m362.6,234.88H5.6v26.41c.04,3.5.08,7.03.13,10.61.02,1.63,1.28,2.98,2.75,2.98h28.67c1.44,0,2.66,1.29,2.72,2.87l1.1,26.32c.06,1.55,1.27,2.81,2.7,2.81h22.11c1.45,0,2.67,1.28,2.72,2.86l.88,26.33c.05,1.55,1.26,2.81,2.7,2.81h221.8c1.39,0,2.56-1.22,2.61-2.72l.85-25.51c.05-1.53,1.23-2.77,2.63-2.77h26.42c1.42,0,2.63-1.26,2.7-2.81l1.12-26.33c.07-1.58,1.29-2.86,2.72-2.86h26.75c1.47,0,2.72-1.35,2.75-2.99.07-3.7.12-7.35.17-10.97v-27.04Z"/>
        <path class="cls-5" d="m174.1,276.31L31.93,234.88H5.02s90.79,70.05,90.79,70.05c5.96,4.6,13.63,6.37,21,4.85l57.3-33.47Z"/>
        <path class="cls-5" d="m193.84,276.59l141.81-41.7h26.91s-90.79,70.05-90.79,70.05c-5.96,4.6-13.63,6.37-21,4.85l-56.93-33.19Z"/>
        <path class="cls-12" d="m226.6,224.52c-.4.87-1.83,2.36-1.83,2.36h-10.74c-.78,0-1.42.66-1.43,1.46l-.08,9.1c0,.8-.65,1.44-1.43,1.44l-57.08.03c-.78,0-1.42-.64-1.42-1.44v-9.74s-.5-1.58-1.29-1.86h-9.06c-.79.28-1.43-.42-1.44-1.3,0,0-.56-17.15.23-17.15,13.94,0,24.08-.14,39.27,0,15,.14,32.6-.45,46.3-.39v17.47Z"/>
        <g>
          <rect class="cls-4" x="73.6" y="192.88" width="43" height="25" rx="8" ry="8"/>
          <rect class="cls-4" x="250.6" y="192.88" width="43" height="25" rx="8" ry="8"/>
          <rect class="cls-9" x="104.6" y="155.88" width="31" height="31" rx="9.35" ry="9.35"/>
          <rect class="cls-9" x="233.6" y="155.88" width="31" height="31" rx="9.35" ry="9.35"/>
        </g>
        <polygon class="cls-11" points="165.65 275.16 181.79 299.94 197.27 275.16 216.39 274.02 335.64 234.88 31.93 234.88 146.73 273.44 165.65 275.16"/>
      </g>
      <g>
        <path class="cls-1" d="m219.72,365.28c-.59-41.14.57-72.58,1.94-113.9.24-7.15,4.02-13.31,9.72-15.75,24.23-10.36,54.75-10.11,81.3-10.08,22.32.03,56.29-.15,81.49,10.58,5.38,2.29,8.95,8.13,9.19,14.89,1.47,41.53,3.41,73.23,2.62,114.32-.02.85-1.44,2.48-1.44,2.48h-13.91c-.72,0-1.33.64-1.36,1.43l-.56,13.17c-.03.78-.64,1.41-1.35,1.41h-13.87c-.72,0-1.33.64-1.36,1.43l-.44,13.17c-.03.78-.63,1.41-1.35,1.41h-115.79c-.72,0-1.32-.63-1.35-1.41l-.44-13.16c-.03-.79-.64-1.43-1.36-1.43h-11.83c-.76,0-1.4-.67-1.43-1.5l-.58-13.99c-.03-.84-.68-1.52-1.45-1.52h-14.97s-1.43-.68-1.44-1.53Z"/>
        <path class="cls-3" d="m230.1,298.2l.15,54.62h18.94s.53,15,.53,15h12.95s.48,17,.48,17h99.07s.62-17,.62-17l11.65.16.52-15.16h19.1s.37-54.5.37-54.5c-5.28,0-12.32,0-17.61-.01.29-8.55.59-17.18.88-25.88-43.76-.16-87.54-.32-131.36-.48.3,8.84.61,17.59.91,26.27-5.3,0-11.89,0-17.19-.01Z"/>
        <path class="cls-11" d="m233.1,296.1l.12,54.72h18.52s.51,15,.51,15h12.05s.46,17,.46,17h95.61s.6-17,.6-17l11.23.17.49-15.17h18.4s.33-54.6.33-54.6c-5.09,0-11.87,0-16.96-.01.28-8.56.56-17.2.84-25.91-42.14-.16-84.31-.32-126.51-.47.29,8.85.58,17.61.86,26.3-5.1,0-11.45,0-16.55-.01Z"/>
        <path class="cls-8" d="m407.52,300.81c-.78.94-1.56,1.87-2.34,2.81-.89-.06-1.78-.12-2.67-.18-10.54-.41-21.07-.73-31.61-.97.2-6,.39-12.01.59-18.01-10.28-.22-20.56-.36-30.84-.42-.05,3.58-.1,7.16-.16,10.74-18.56-.22-37.13-.18-55.69.11.1-3.71.19-7.41.29-11.12-10.24.07-20.48.23-30.72.46.04,1.57.09,3.13.13,4.7.13,4.48.26,8.97.39,13.45-11.78.35-23.56.81-35.33,1.37-.37-.59-.74-1.19-1.12-1.78-.37-.59-1.06-1.49-1.43-2.09,2.28-14.53,2.68-25.81,2.3-33.86-.25-5.33.53-9.37,1-15.13.78-9.64,7.27-17.4,15.69-18.55.32-.04.63-.09.95-.13,23.93-3.23,49.92-5.2,77.68-5.13,28.56.07,55.21,2.29,79.66,5.8,7.5,1.08,10.69,7.76,11.39,16.38.43,5.27.97,8.77,1.22,18.18.42,15.57.52,22.69.54,25.11.04,3.47.06,6.33.08,8.25Z"/>
        <path class="cls-7" d="m219.95,302.68c10.95-.49,21.9-.9,32.86-1.21-.21-6.66-.41-13.32-.62-19.98,10.45-.3,20.9-.53,31.36-.67.06,3.65.11,7.31.17,10.96,18.98-.26,37.97-.25,56.95.03.05-3.67.11-7.35.16-11.02,10.54.15,21.08.39,31.61.71-.2,6.31-.39,12.62-.59,18.94,11.47.34,22.94.77,34.41,1.3,0,0,1.95-.71,1.95-1.87.02-10.98-.23-22.7-.85-35.11-.32-6.36-.72-12.6-1.19-18.72-.68-8.87-6.44-15.99-13.93-17.08-24.42-3.55-51.03-5.78-79.56-5.82-28.09-.04-54.36,2.05-78.52,5.45-8.4,1.18-14.87,9.16-15.61,19.09-.38,5.08-.7,10.28-.95,15.58-.59,12.69-.69,24.54-.47,35.47.04,1.73,2.82,3.97,2.82,3.97Z"/>
        <path class="cls-11" d="m400.95,281.06l-12.84-.47c-1.17,0-2.09-1.08-2.05-2.4.18-5.63-.55-12.38-1.58-19.97-.92-6.77-1.76-12.75-3.24-17.76-.49-1.66.33-3.71,1.87-3.7l13.53.28c.94,0,2,.75,2.26,1.78,1.43,5.74,2.5,12.36,3.36,19.85.83,7.21,1.06,13.78.99,19.5-.02,1.39-1.07,2.91-2.3,2.9Z"/>
        <path class="cls-11" d="m406.1,345.82h-186v13.78c.02,1.86.04,3.74.07,5.64.01.86.68,1.58,1.46,1.58h15.23c.76,0,1.41.68,1.45,1.52l.58,13.98c.03.83.68,1.49,1.43,1.49h11.09c.73,0,1.33.64,1.36,1.43l.44,13.16c.03.78.63,1.41,1.35,1.41h115.79c.72,0,1.32-.63,1.35-1.41l.44-13.16c.03-.79.63-1.43,1.36-1.43h13.77c.76,0,1.4-.67,1.43-1.49l.59-13.99c.04-.84.68-1.52,1.45-1.52h13.85c.77,0,1.42-.69,1.43-1.53.04-1.89.06-3.76.09-5.62v-13.85Z"/>
        <g>
          <g>
            <rect class="cls-13" x="332.61" y="395.32" width="2" height="2"/>
            <rect class="cls-13" x="330.61" y="395.32" width="2" height="2"/>
            <rect class="cls-13" x="330.61" y="392.32" width="2" height="3"/>
            <rect class="cls-13" x="328.61" y="395.32" width="2" height="2"/>
            <rect class="cls-13" x="328.61" y="392.32" width="2" height="3"/>
            <rect class="cls-13" x="328.61" y="390.32" width="2" height="2"/>
            <rect class="cls-13" x="326.61" y="395.32" width="2" height="2"/>
            <rect class="cls-13" x="326.61" y="392.32" width="2" height="3"/>
            <rect class="cls-13" x="326.61" y="390.32" width="2" height="2"/>
            <rect class="cls-13" x="326.61" y="387.32" width="2" height="3"/>
            <rect class="cls-13" x="324.61" y="395.32" width="2" height="2"/>
            <rect class="cls-13" x="324.61" y="392.32" width="2" height="3"/>
            <rect class="cls-13" x="324.61" y="390.32" width="2" height="2"/>
            <rect class="cls-13" x="324.61" y="387.32" width="2" height="3"/>
            <rect class="cls-13" x="324.61" y="385.32" width="2" height="2"/>
            <rect class="cls-13" x="323.6" y="392.32" width="1" height="3"/>
            <rect class="cls-13" x="323.6" y="390.32" width="1" height="2"/>
            <rect class="cls-13" x="323.6" y="387.32" width="1" height="3"/>
            <rect class="cls-13" x="323.6" y="385.32" width="1" height="2"/>
            <rect class="cls-13" x="323.6" y="382.32" width="1" height="3"/>
            <rect class="cls-13" x="321.6" y="390.32" width="2" height="2"/>
            <rect class="cls-13" x="321.6" y="387.32" width="2" height="3"/>
            <rect class="cls-13" x="321.6" y="385.32" width="2" height="2"/>
            <rect class="cls-13" x="321.6" y="382.32" width="2" height="3"/>
            <rect class="cls-13" x="321.6" y="379.32" width="2" height="3"/>
            <rect class="cls-13" x="319.6" y="387.32" width="2" height="3"/>
            <rect class="cls-13" x="319.6" y="385.32" width="2" height="2"/>
            <rect class="cls-13" x="319.6" y="382.32" width="2" height="3"/>
            <rect class="cls-13" x="319.6" y="379.32" width="2" height="3"/>
            <rect class="cls-13" x="319.6" y="377.32" width="2" height="2"/>
            <rect class="cls-13" x="317.6" y="385.32" width="2" height="2"/>
            <rect class="cls-13" x="317.6" y="382.32" width="2" height="3"/>
            <rect class="cls-13" x="317.6" y="379.32" width="2" height="3"/>
            <rect class="cls-13" x="317.6" y="377.32" width="2" height="2"/>
            <rect class="cls-13" x="315.6" y="382.32" width="2" height="3"/>
            <rect class="cls-13" x="315.6" y="379.32" width="2" height="3"/>
            <rect class="cls-13" x="315.6" y="377.32" width="2" height="2"/>
            <rect class="cls-13" x="313.6" y="379.32" width="2" height="3"/>
            <rect class="cls-13" x="313.6" y="377.32" width="2" height="2"/>
            <rect class="cls-13" x="311.6" y="379.32" width="2" height="3"/>
            <rect class="cls-13" x="311.6" y="377.32" width="2" height="2"/>
            <rect class="cls-13" x="309.6" y="382.32" width="2" height="3"/>
            <rect class="cls-13" x="309.6" y="379.32" width="2" height="3"/>
            <rect class="cls-13" x="309.6" y="377.32" width="2" height="2"/>
            <rect class="cls-13" x="307.6" y="385.32" width="2" height="2"/>
            <rect class="cls-13" x="307.6" y="382.32" width="2" height="3"/>
            <rect class="cls-13" x="307.6" y="379.32" width="2" height="3"/>
            <rect class="cls-13" x="307.6" y="377.32" width="2" height="2"/>
            <rect class="cls-13" x="305.6" y="387.32" width="2" height="3"/>
            <rect class="cls-13" x="305.6" y="385.32" width="2" height="2"/>
            <rect class="cls-13" x="305.6" y="382.32" width="2" height="3"/>
            <rect class="cls-13" x="305.6" y="379.32" width="2" height="3"/>
            <rect class="cls-13" x="305.6" y="377.32" width="2" height="2"/>
            <rect class="cls-13" x="303.6" y="390.32" width="2" height="2"/>
            <rect class="cls-13" x="303.6" y="387.32" width="2" height="3"/>
            <rect class="cls-13" x="303.6" y="385.32" width="2" height="2"/>
            <rect class="cls-13" x="303.6" y="382.32" width="2" height="3"/>
            <rect class="cls-13" x="303.6" y="379.32" width="2" height="3"/>
            <rect class="cls-13" x="301.6" y="392.32" width="2" height="3"/>
            <rect class="cls-13" x="301.6" y="390.32" width="2" height="2"/>
            <rect class="cls-13" x="301.6" y="387.32" width="2" height="3"/>
            <rect class="cls-13" x="301.6" y="385.32" width="2" height="2"/>
            <rect class="cls-13" x="301.6" y="382.32" width="2" height="3"/>
            <rect class="cls-13" x="299.6" y="395.32" width="2" height="2"/>
            <rect class="cls-13" x="299.6" y="392.32" width="2" height="3"/>
            <rect class="cls-13" x="299.6" y="390.32" width="2" height="2"/>
            <rect class="cls-13" x="299.6" y="387.32" width="2" height="3"/>
            <rect class="cls-13" x="299.6" y="385.32" width="2" height="2"/>
            <rect class="cls-13" x="297.6" y="395.32" width="2" height="2"/>
            <rect class="cls-13" x="297.6" y="392.32" width="2" height="3"/>
            <rect class="cls-13" x="297.6" y="390.32" width="2" height="2"/>
            <rect class="cls-13" x="297.6" y="387.32" width="2" height="3"/>
            <rect class="cls-13" x="295.6" y="395.32" width="2" height="2"/>
            <rect class="cls-13" x="295.6" y="392.32" width="2" height="3"/>
            <rect class="cls-13" x="295.6" y="390.32" width="2" height="2"/>
            <rect class="cls-13" x="293.6" y="395.32" width="2" height="2"/>
            <rect class="cls-13" x="293.6" y="392.32" width="2" height="3"/>
            <rect class="cls-13" x="291.6" y="395.32" width="2" height="2"/>
          </g>
          <g>
            <path class="cls-10" d="m312.49,377.66l-79.26-31.84h-14.04s47.36,36.54,47.36,36.54c3.11,2.4,7.11,3.32,10.95,2.53l34.98-7.23Z"/>
            <path class="cls-10" d="m312.41,377.66l79.26-31.84h14.04s-47.36,36.54-47.36,36.54c-3.11,2.4-7.11,3.32-10.95,2.53l-34.98-7.23Z"/>
          </g>
        </g>
        <path class="cls-12" d="m335.1,340.24c-.08.46-.82,1.58-.82,1.58h-5.22s-.75-.38-.95.08v5.18c.16.45-.18.82-.59.74h-30.01c-.41.1-1.4-.72-1.4-.72v-5.18s.27-.82-.14-1.1h-4.73c-.41.28-.75-.09-.75-.55,0,0-.29-8.94.12-8.94,7.27,0,12.56-.07,20.49,0,7.82.08,17.01-.24,24.02-.2v9.11Z"/>
        <g>
          <rect class="cls-4" x="256.1" y="323.82" width="22" height="13" rx="6.48" ry="6.48"/>
          <rect class="cls-4" x="348.1" y="323.82" width="22" height="13" rx="6.48" ry="6.48"/>
          <g>
            <path class="cls-2" d="m354.4,320.35c-.39,0-.78-.08-1.15-.27l-9.87-4.81c-1.39-.68-2.27-2.05-2.32-3.59-.04-1.54.77-2.97,2.11-3.72l9.48-5.3c1.27-.71,2.86-.26,3.57,1.01.71,1.26.26,2.86-1.01,3.57l-7.61,4.26,7.94,3.87c1.3.64,1.84,2.21,1.21,3.51-.45.93-1.39,1.47-2.36,1.47Z"/>
            <path class="cls-2" d="m273.07,320.39c.39,0,.78-.08,1.15-.27l9.87-4.81c1.39-.68,2.27-2.05,2.32-3.59.04-1.54-.77-2.97-2.11-3.72l-9.48-5.3c-1.27-.71-2.86-.26-3.57,1.01-.71,1.26-.26,2.86,1.01,3.57l7.61,4.26-7.94,3.87c-1.3.64-1.84,2.21-1.21,3.51.45.93,1.39,1.47,2.36,1.47Z"/>
          </g>
        </g>
      </g>
    </g>
  </g>
</svg>