<?xml version="1.0" encoding="UTF-8"?>
<svg id="Layer_2" data-name="Layer 2" xmlns="http://www.w3.org/2000/svg" viewBox="0 0 441.36 415.37">
  <defs>
    <style>
      .cls-1 {
        fill: gold;
      }

      .cls-2 {
        fill: none;
        stroke: #0c1256;
        stroke-linecap: round;
        stroke-linejoin: round;
        stroke-width: 5px;
      }

      .cls-3 {
        fill: #f89c1c;
      }

      .cls-3, .cls-4, .cls-5, .cls-6, .cls-7, .cls-8, .cls-9, .cls-10 {
        stroke-width: 0px;
      }

      .cls-4 {
        fill: #f493a3;
      }

      .cls-5 {
        fill: #24c6ff;
      }

      .cls-6 {
        fill: #3584c5;
      }

      .cls-7 {
        fill: #221f1f;
      }

      .cls-8 {
        fill: #133063;
      }

      .cls-9 {
        fill: #fff;
      }

      .cls-10 {
        fill: #ee3c35;
      }
    </style>
  </defs>
  <g id="Layer_4" data-name="Layer 4">
    <g>
      <path class="cls-1" d="m6.22,328.22c-1.37-94.97,1.31-167.56,4.47-262.96.55-16.52,9.29-30.74,22.45-36.36C89.07,4.97,159.53,5.55,220.83,5.62c51.52.06,129.95-.34,188.12,24.41,12.43,5.29,20.66,18.77,21.21,34.37,3.39,95.89,7.86,169.06,6.06,263.93-.04,1.95-3.32,3.03-3.32,3.03h-31.9c-1.75,0-3.24,1.55-3.32,3.48l-1.36,32.09c-.08,1.89-1.55,3.43-3.29,3.43h-31.71c-1.72,0-3.17,1.52-3.23,3.39l-1.04,31.27c-.06,1.85-1.49,3.34-3.2,3.34H86.78c-1.71,0-3.14-1.49-3.2-3.34l-1.05-31.26c-.06-1.87-1.51-3.4-3.23-3.4h-27.22c-1.74,0-3.21-1.54-3.28-3.43l-1.34-32.08c-.08-1.92-1.57-3.49-3.32-3.49H9.54s-3.3-1.19-3.33-3.15Z"/>
      <path class="cls-3" d="m31.05,175.56l.35,123.8h44.18s1.23,35,1.23,35h28.55s1.09,39,1.09,39l228.71.02,1.46-40.02,28.09.37,1.2-34.37h44.14s.86-123.54.86-123.54c-12.21,0-28.48-.02-40.7-.03.67-19.38,1.36-38.93,2.04-58.67-101.12-.36-202.31-.72-303.58-1.08.7,20.03,1.4,39.88,2.09,59.54-12.24,0-27.48-.02-39.72-.03Z"/>
      <path class="cls-9" d="m37.05,170.34l.28,124.02h41.98s1.15,34,1.15,34h28.69s1.06,39,1.06,39l220.75.02,1.37-39.02,26.95.37,1.14-34.37h42.63s.75-123.76.75-123.76c-11.79,0-27.5-.02-39.29-.03.64-19.41,1.29-38.98,1.94-58.74-97.62-.36-195.3-.72-293.05-1.08.67,20.05,1.34,39.92,2,59.61-11.82,0-26.53-.02-38.35-.03Z"/>
      <path class="cls-6" d="m440.71,180.19c-1.81,2.24-3.61,4.48-5.41,6.71-2.06-.14-4.11-.28-6.16-.41-24.32-.93-48.65-1.68-72.99-2.23.47-14.34.93-28.68,1.4-43.03-23.74-.5-47.48-.82-71.22-.95-.13,8.79-.25,17.58-.38,26.37-43.88-.51-87.76-.41-131.64.31.23-8.76.45-17.52.68-26.27-22.94.18-45.88.52-68.82,1.03.11,3.65.22,7.31.32,10.97.31,10.46.62,20.93.93,31.39-26.89.82-53.77,1.86-80.65,3.14-.86-1.42-1.72-2.84-2.58-4.25-.86-1.42-2.45-3.57-3.31-5,5.2-34.69,6.09-61.65,5.19-80.89-.59-12.72,1.19-22.39,2.25-36.15,1.77-23.03,16.75-41.54,36.2-44.25.73-.1,1.46-.2,2.2-.3,55.31-7.65,115.38-12.3,179.55-12.14,66.01.17,127.61,5.42,184.12,13.73,17.33,2.56,24.68,18.5,26.27,39.09.97,12.59,2.2,20.96,2.76,43.43.93,37.19,1.11,54.21,1.16,59.98.08,8.3.12,15.12.15,19.71Z"/>
      <path class="cls-5" d="m6.75,182.05c25.27-1.14,50.55-2.07,75.83-2.8-.46-14.98-.92-29.97-1.38-44.96,24.86-.72,49.73-1.24,74.6-1.57.13,8.97.25,17.94.38,26.9,43.39-.57,86.78-.53,130.16.11.12-9.02.25-18.04.37-27.06,24.4.36,48.81.92,73.21,1.66-.45,14.62-.9,29.23-1.35,43.85,26.1.77,52.2,1.76,78.29,2.96,0,0,4.49-1.31,4.49-3.99.04-25.36-.55-52.41-1.99-81.06-.74-14.68-1.67-29.1-2.75-43.22-1.58-20.48-14.89-36.93-32.17-39.44C348.09,5.24,286.65.09,220.83,0,156-.09,95.37,4.73,39.63,12.57,20.23,15.3,5.31,33.73,3.57,56.65c-.89,11.73-1.64,23.73-2.21,35.97C-.02,121.91-.27,149.26.25,174.51c.08,3.99,6.5,7.54,6.5,7.54Z"/>
      <path class="cls-9" d="m424.62,133.77l-29.65-1.09c-2.71-.02-4.82-2.49-4.73-5.55.41-12.99-1.27-28.58-3.66-46.1-2.13-15.63-4.07-29.44-7.49-41-1.13-3.84.76-8.56,4.33-8.55l31.23.64c2.17,0,4.62,1.73,5.21,4.1,3.31,13.24,5.78,28.53,7.76,45.84,1.9,16.65,2.46,31.81,2.3,45.01-.04,3.2-2.47,6.72-5.3,6.7Z"/>
      <path class="cls-10" d="m273.05,270.4c-.63,1.05-2.35,1.97-2.35,1.97h-11.91c-.95,0-1.73.88-1.74,1.94l-.09,12.14c0,1.06-.78,1.92-1.73,1.92l-69.44.04c-.95,0-1.72-.86-1.73-1.92v-12.22s-.87-1.9-1.82-2.9h-10.92c-.95,1.01-1.73.16-1.74-.9,0,0-.68-20.65.27-20.65,16.79,0,28.99-.17,47.3,0,18.06.17,39.27-.55,55.9-.47v21.04Z"/>
      <g>
        <rect class="cls-4" x="89.05" y="232.37" width="51" height="30" rx="7.93" ry="7.93"/>
        <rect class="cls-4" x="302.05" y="232.37" width="51" height="30" rx="7.93" ry="7.93"/>
      </g>
      <path class="cls-2" d="m5.16,290.18c139.43,20.51,290.46,73.53,310.47,71.53,18.25-1.82,24.34-33.59,120.46-71.08"/>
      <rect class="cls-8" x="264.05" y="328.37" width="83" height="87" rx="7.44" ry="7.44"/>
      <g>
        <path class="cls-9" d="m279.05,387.37h-3v-34h6v5h6v6h-6v23h-3Zm23,0h-3v-23h-6v6h-6v-6h6v-6h6v-5h6v34h-3Z"/>
        <path class="cls-9" d="m316.05,381.37h-6v-28h6v28Zm11.2,6h-11.2v-6h14v6h-2.8Zm1.8-6v-28h6v28h-6Z"/>
      </g>
      <g>
        <path class="cls-7" d="m153.27,226.01c-5.81-.13-11.63-.13-17.44,0-5.73.12-10.22-4.13-10.04-9.68.17-5.98.35-11.95.52-17.93.18-5.54,4.66-10.26,10.03-10.37,5.47-.12,10.95-.12,16.43,0,5.36.11,9.85,4.83,10.03,10.37.17,5.98.35,11.95.52,17.93.18,5.55-4.31,9.8-10.04,9.68Z"/>
        <path class="cls-7" d="m304.27,225.01c-5.81-.13-11.63-.13-17.44,0-5.73.12-10.22-4.13-10.04-9.68.17-5.98.35-11.95.52-17.93.18-5.54,4.67-10.26,10.03-10.37,5.47-.12,10.95-.12,16.43,0,5.36.11,9.85,4.83,10.03,10.37.17,5.98.35,11.95.52,17.93.18,5.55-4.32,9.8-10.04,9.68Z"/>
      </g>
    </g>
  </g>
</svg>