<?xml version="1.0" encoding="UTF-8"?>
<svg id="Layer_2" data-name="Layer 2" xmlns="http://www.w3.org/2000/svg" viewBox="0 0 441.36 466.66">
  <defs>
    <style>
      .cls-1 {
        fill: gold;
      }

      .cls-2 {
        fill: #231f20;
        stroke: #231f20;
        stroke-miterlimit: 10;
        stroke-width: 4px;
      }

      .cls-3 {
        fill: #f89c1c;
      }

      .cls-3, .cls-4, .cls-5, .cls-6, .cls-7, .cls-8, .cls-9, .cls-10 {
        stroke-width: 0px;
      }

      .cls-4 {
        fill: #f493a3;
      }

      .cls-5 {
        fill: #24c6ff;
      }

      .cls-6 {
        fill: #3584c5;
      }

      .cls-7 {
        fill: #d5f5f7;
      }

      .cls-8 {
        fill: #fff;
      }

      .cls-9 {
        fill: #ee3c35;
      }

      .cls-10 {
        fill: #053477;
      }
    </style>
  </defs>
  <g id="Layer_3" data-name="Layer 3">
    <g>
      <path class="cls-1" d="m6.22,328.22c-1.37-94.97,1.31-167.56,4.47-262.96.55-16.52,9.29-30.74,22.45-36.36C89.07,4.97,159.53,5.55,220.83,5.62c51.52.06,129.95-.34,188.12,24.41,12.43,5.29,20.66,18.77,21.21,34.37,3.39,95.89,7.86,169.06,6.06,263.93-.04,1.95-3.32,3.56-3.32,3.56h-31.9c-1.75,0-3.24,1.55-3.32,3.48l-1.36,32.09c-.08,1.89-1.55,3.43-3.29,3.43h-31.71c-1.72,0-3.17,1.52-3.23,3.39l-1.04,31.27c-.06,1.85-1.49,3.34-3.2,3.34H86.78c-1.71,0-3.14-1.49-3.2-3.34l-1.05-31.26c-.06-1.87-1.51-3.4-3.23-3.4h-27.12c-1.78,0-3.29-1.58-3.37-3.52l-1.37-32.91c-.08-1.97-1.61-3.58-3.4-3.58H9.55s-3.3-.72-3.33-2.68Z"/>
      <path class="cls-3" d="m31.41,175.09l.35,123.8h44.18s1.23,35,1.23,35h28.2s1.09,39,1.09,39l228.71.02,1.46-40.02,28.44.37,1.2-34.37h44.14s.86-123.54.86-123.54c-12.21,0-28.48-.02-40.7-.03.67-19.38,1.36-38.93,2.04-58.67-101.12-.36-202.31-.72-303.58-1.08.7,20.03,1.4,39.88,2.09,59.54-12.24,0-27.48-.02-39.72-.03Z"/>
      <path class="cls-8" d="m37.41,169.87l.28,125.02h41.98s1.15,34,1.15,34h28.34s1.06,39,1.06,39l220.73.03,1.41-40.03,27.29.37,1.14-34.37h42.63s.75-123.76.75-123.76c-11.79,0-27.5-.02-39.29-.03.64-19.41,1.29-38.98,1.94-58.74-97.62-.36-195.3-.72-293.05-1.08.67,20.05,1.34,39.92,2,59.61-11.82,0-26.53-.02-38.35-.03Z"/>
      <path class="cls-6" d="m441.06,179.72c-1.81,2.24-3.61,4.47-5.41,6.71-2.05-.14-4.11-.28-6.16-.41-24.32-.93-48.65-1.68-72.99-2.23.47-14.34.93-28.68,1.4-43.03-23.74-.5-47.48-.82-71.22-.95-.13,8.79-.25,17.58-.38,26.37-43.88-.51-87.76-.41-131.64.31.23-8.76.45-17.52.68-26.27-23.06.18-46.12.53-69.18,1.05.11,3.65.22,7.31.32,10.97.31,10.46.62,20.93.93,31.39-26.77.81-53.53,1.86-80.29,3.13-.86-1.42-1.72-2.84-2.58-4.25-.86-1.42-2.45-3.57-3.31-5,5.2-34.69,6.09-61.65,5.19-80.89-.59-12.72,1.19-22.39,2.25-36.15,1.77-23.03,16.75-41.54,36.2-44.26.73-.1,1.47-.2,2.19-.3C102.38,8.28,162.44,3.62,226.61,3.79c66.01.17,127.61,5.42,184.12,13.73,17.33,2.56,24.68,18.5,26.27,39.09.97,12.59,2.2,20.96,2.76,43.43.93,37.19,1.11,54.21,1.16,59.98.08,8.3.12,15.12.15,19.71Z"/>
      <path class="cls-5" d="m6.76,181.58c25.27-1.14,50.55-2.07,75.83-2.8-.46-14.99-.93-29.97-1.39-44.96,24.64-.71,49.29-1.23,73.94-1.56.13,8.97.26,17.94.38,26.9,43.39-.57,86.78-.54,130.16.09.13-8.69.25-17.37.38-26.06,24.96.37,49.92.94,74.87,1.7-.46,14.95-.92,29.9-1.38,44.85,25.78.76,51.55,1.74,77.31,2.93,0,0,4.48-2.84,4.49-5.52.04-25.36-.54-52.41-1.98-81.06-.74-14.69-1.66-29.1-2.75-43.22-1.58-20.48-14.88-36.93-32.17-39.44C348.1,5.24,286.66.09,220.84,0,156-.09,95.37,4.74,39.61,12.57,20.22,15.3,5.29,33.73,3.56,56.65c-.89,11.73-1.63,23.73-2.21,35.97C-.02,121.91-.27,149.26.25,174.51c.08,3.99,6.5,7.07,6.5,7.07Z"/>
      <path class="cls-8" d="m424.62,133.77l-29.65-1.09c-2.71-.02-4.82-2.49-4.73-5.55.41-12.99-1.27-28.58-3.66-46.1-2.13-15.63-4.07-29.44-7.49-41-1.13-3.84.76-8.56,4.33-8.55l31.23.64c2.17,0,4.62,1.73,5.21,4.1,3.31,13.24,5.78,28.53,7.76,45.84,1.9,16.65,2.46,31.81,2.3,45.01-.04,3.2-2.47,6.72-5.3,6.7Z"/>
      <path class="cls-8" d="m436.41,282.9H6.41v32.44c.05,4.27.1,8.57.16,12.93.03,1.98,1.55,3.63,3.36,3.64h34.94c1.75,0,3.24,1.57,3.32,3.49l1.34,32.08c.08,1.89,1.55,3.43,3.28,3.43h26.58c1.68,0,3.09,1.48,3.15,3.31l1.02,30.44c.06,1.8,1.46,3.25,3.12,3.25h267.3c1.66,0,3.05-1.46,3.11-3.25l1.01-30.44c.06-1.83,1.47-3.31,3.14-3.31h31.81c1.73,0,3.2-1.53,3.28-3.42l1.36-32.09c.08-1.92,1.57-3.49,3.32-3.49h31.87c1.77,0,3.28-1.62,3.31-3.58.08-4.42.15-8.78.21-13.11v-32.31Z"/>
      <g>
        <g>
          <rect class="cls-10" x="267.91" y="396.4" width="4" height="6"/>
          <rect class="cls-10" x="262.9" y="396.4" width="5" height="6"/>
          <rect class="cls-10" x="262.9" y="390.4" width="5" height="6"/>
          <rect class="cls-10" x="258.9" y="396.4" width="4" height="6"/>
          <rect class="cls-10" x="258.9" y="390.4" width="4" height="6"/>
          <rect class="cls-10" x="258.9" y="385.39" width="4" height="5"/>
          <rect class="cls-10" x="253.91" y="396.4" width="5" height="6"/>
          <rect class="cls-10" x="253.91" y="390.4" width="5" height="6"/>
          <rect class="cls-10" x="253.91" y="385.39" width="5" height="5"/>
          <rect class="cls-10" x="253.91" y="379.4" width="5" height="5.99"/>
          <rect class="cls-10" x="249.91" y="396.4" width="4" height="6"/>
          <rect class="cls-10" x="249.91" y="390.4" width="4" height="6"/>
          <rect class="cls-10" x="249.91" y="385.39" width="4" height="5"/>
          <rect class="cls-10" x="249.91" y="379.4" width="4" height="5.99"/>
          <rect class="cls-10" x="249.91" y="373.4" width="4" height="6"/>
          <rect class="cls-10" x="244.9" y="390.4" width="5" height="6"/>
          <rect class="cls-10" x="244.9" y="385.39" width="5" height="5"/>
          <rect class="cls-10" x="244.9" y="379.4" width="5" height="5.99"/>
          <rect class="cls-10" x="244.9" y="373.4" width="5" height="6"/>
          <rect class="cls-10" x="244.9" y="367.4" width="5" height="6"/>
          <rect class="cls-10" x="240.9" y="385.39" width="4" height="5"/>
          <rect class="cls-10" x="240.9" y="379.4" width="4" height="5.99"/>
          <rect class="cls-10" x="240.9" y="373.4" width="4" height="6"/>
          <rect class="cls-10" x="240.9" y="367.4" width="4" height="6"/>
          <rect class="cls-10" x="240.9" y="361.4" width="4" height="6"/>
          <rect class="cls-10" x="235.91" y="379.4" width="5" height="5.99"/>
          <rect class="cls-10" x="235.91" y="373.4" width="5" height="6"/>
          <rect class="cls-10" x="235.91" y="367.4" width="5" height="6"/>
          <rect class="cls-10" x="235.91" y="361.4" width="5" height="6"/>
          <rect class="cls-10" x="235.91" y="356.39" width="5" height="5"/>
          <rect class="cls-10" x="231.91" y="373.4" width="4" height="6"/>
          <rect class="cls-10" x="231.91" y="367.4" width="4" height="6"/>
          <rect class="cls-10" x="231.91" y="361.4" width="4" height="6"/>
          <rect class="cls-10" x="231.91" y="356.39" width="4" height="5"/>
          <rect class="cls-10" x="226.91" y="367.4" width="5" height="6"/>
          <rect class="cls-10" x="226.91" y="361.4" width="5" height="6"/>
          <rect class="cls-10" x="226.91" y="356.39" width="5" height="5"/>
          <rect class="cls-10" x="222.91" y="361.4" width="4" height="6"/>
          <rect class="cls-10" x="222.91" y="356.39" width="4" height="5"/>
          <rect class="cls-10" x="217.91" y="361.4" width="5" height="6"/>
          <rect class="cls-10" x="217.91" y="356.39" width="5" height="5"/>
          <rect class="cls-10" x="213.91" y="367.4" width="4" height="6"/>
          <rect class="cls-10" x="213.91" y="361.4" width="4" height="6"/>
          <rect class="cls-10" x="213.91" y="356.39" width="4" height="5"/>
          <rect class="cls-10" x="208.91" y="373.4" width="5" height="6"/>
          <rect class="cls-10" x="208.91" y="367.4" width="5" height="6"/>
          <rect class="cls-10" x="208.91" y="361.4" width="5" height="6"/>
          <rect class="cls-10" x="208.91" y="356.39" width="5" height="5"/>
          <rect class="cls-10" x="204.91" y="379.4" width="4" height="5.99"/>
          <rect class="cls-10" x="204.91" y="373.4" width="4" height="6"/>
          <rect class="cls-10" x="204.91" y="367.4" width="4" height="6"/>
          <rect class="cls-10" x="204.91" y="361.4" width="4" height="6"/>
          <rect class="cls-10" x="204.91" y="356.39" width="4" height="5"/>
          <rect class="cls-10" x="199.91" y="385.39" width="5" height="5"/>
          <rect class="cls-10" x="199.91" y="379.4" width="5" height="5.99"/>
          <rect class="cls-10" x="199.91" y="373.4" width="5" height="6"/>
          <rect class="cls-10" x="199.91" y="367.4" width="5" height="6"/>
          <rect class="cls-10" x="199.91" y="361.4" width="5" height="6"/>
          <rect class="cls-10" x="195.91" y="390.4" width="4" height="6"/>
          <rect class="cls-10" x="195.91" y="385.39" width="4" height="5"/>
          <rect class="cls-10" x="195.91" y="379.4" width="4" height="5.99"/>
          <rect class="cls-10" x="195.91" y="373.4" width="4" height="6"/>
          <rect class="cls-10" x="195.91" y="367.4" width="4" height="6"/>
          <rect class="cls-10" x="190.91" y="396.4" width="5" height="6"/>
          <rect class="cls-10" x="190.91" y="390.4" width="5" height="6"/>
          <rect class="cls-10" x="190.91" y="385.39" width="5" height="5"/>
          <rect class="cls-10" x="190.91" y="379.4" width="5" height="5.99"/>
          <rect class="cls-10" x="190.91" y="373.4" width="5" height="6"/>
          <rect class="cls-10" x="186.91" y="396.4" width="4" height="6"/>
          <rect class="cls-10" x="186.91" y="390.4" width="4" height="6"/>
          <rect class="cls-10" x="186.91" y="385.39" width="4" height="5"/>
          <rect class="cls-10" x="186.91" y="379.4" width="4" height="5.99"/>
          <rect class="cls-10" x="181.91" y="396.4" width="5" height="6"/>
          <rect class="cls-10" x="181.91" y="390.4" width="5" height="6"/>
          <rect class="cls-10" x="181.91" y="385.39" width="5" height="5"/>
          <rect class="cls-10" x="177.91" y="396.4" width="4" height="6"/>
          <rect class="cls-10" x="177.91" y="390.4" width="4" height="6"/>
          <rect class="cls-10" x="172.91" y="396.4" width="5" height="6"/>
        </g>
        <g>
          <path class="cls-7" d="m220.4,356.41l-182.98-73.51-32.41-.02,109.34,84.38c7.18,5.54,16.41,7.67,25.29,5.84l80.77-16.69Z"/>
          <path class="cls-7" d="m220.2,356.41l182.98-73.51,32.41-.02-109.34,84.38c-7.18,5.54-16.41,7.67-25.29,5.84l-80.77-16.69Z"/>
        </g>
      </g>
      <path class="cls-9" d="m272.41,270.4c.02,1.05-1.7,2.5-1.7,2.5h-11.55c-.95,0-1.73.82-1.74,1.82l-.09,11.38c0,.99-.78,1.8-1.73,1.8l-69.44.04c-.95,0-1.72-.8-1.73-1.8v-11.87s-1.22-1.9-2.17-2.37h-10.92c-.95.48-1.73-.37-1.74-1.43,0,0-.68-20.65.27-20.65,16.79,0,28.99-.17,47.3,0,18.06.17,39.27-.55,55.25-.47v21.04Z"/>
      <g>
        <rect class="cls-4" x="89.41" y="231.9" width="51" height="30" rx="7.93" ry="7.93"/>
        <rect class="cls-4" x="302.41" y="231.9" width="51" height="30" rx="7.93" ry="7.93"/>
        <g>
          <path class="cls-2" d="m317.16,224.48c-.89,0-1.8-.2-2.65-.61l-22.79-11.12c-3.2-1.56-5.25-4.74-5.35-8.3-.1-3.56,1.77-6.85,4.87-8.58l21.89-12.24c2.92-1.63,6.61-.59,8.25,2.33,1.63,2.92.59,6.61-2.33,8.25l-17.56,9.83,18.34,8.94c3.01,1.47,4.26,5.09,2.79,8.1-1.05,2.15-3.21,3.4-5.45,3.4Z"/>
          <path class="cls-2" d="m129.4,224.57c.89,0,1.8-.2,2.65-.61l22.79-11.12c3.2-1.56,5.25-4.74,5.35-8.3.1-3.56-1.77-6.85-4.87-8.58l-21.89-12.24c-2.92-1.63-6.61-.59-8.25,2.33-1.63,2.92-.59,6.61,2.33,8.25l17.56,9.83-18.34,8.94c-3.01,1.47-4.26,5.09-2.79,8.1,1.05,2.15,3.21,3.4,5.45,3.4Z"/>
        </g>
      </g>
    </g>
  </g>
</svg>